solid OpenSCAD_Model
  facet normal 0 0.956938 -0.290294
    outer loop
      vertex 12.4 1.20104 0.552511
      vertex 0 1.27502 0.796382
      vertex 12.4 1.27502 0.796382
    endloop
  endfacet
  facet normal 0 0.956938 -0.290294
    outer loop
      vertex 0 1.27502 0.796382
      vertex 12.4 1.20104 0.552511
      vertex 0 1.20104 0.552511
    endloop
  endfacet
  facet normal 0 -0.290294 0.956938
    outer loop
      vertex 0 -0.253617 2.32502
      vertex 12.4 -0.497488 2.25104
      vertex 12.4 -0.253617 2.32502
    endloop
  endfacet
  facet normal 0 -0.290294 0.956938
    outer loop
      vertex 12.4 -0.497488 2.25104
      vertex 0 -0.253617 2.32502
      vertex 0 -0.497488 2.25104
    endloop
  endfacet
  facet normal 0 -0.773014 0.634389
    outer loop
      vertex 0 -1.08091 1.77224
      vertex 12.4 -0.919238 1.96924
      vertex 0 -0.919238 1.96924
    endloop
  endfacet
  facet normal 0 -0.773014 0.634389
    outer loop
      vertex 12.4 -0.919238 1.96924
      vertex 0 -1.08091 1.77224
      vertex 12.4 -1.08091 1.77224
    endloop
  endfacet
  facet normal -1 0 0
    outer loop
      vertex 0 1.27502 0.796382
      vertex 0 1.27502 1.30362
      vertex 0 1.3 1.05
    endloop
  endfacet
  facet normal -1 0 0
    outer loop
      vertex 0 1.20104 0.552511
      vertex 0 1.27502 1.30362
      vertex 0 1.27502 0.796382
    endloop
  endfacet
  facet normal -1 0 0
    outer loop
      vertex 0 1.20104 0.552511
      vertex 0 1.20104 1.54749
      vertex 0 1.27502 1.30362
    endloop
  endfacet
  facet normal -1 0 0
    outer loop
      vertex 0 1.08091 0.327758
      vertex 0 1.20104 1.54749
      vertex 0 1.20104 0.552511
    endloop
  endfacet
  facet normal -1 0 0
    outer loop
      vertex 0 1.08091 0.327758
      vertex 0 1.08091 1.77224
      vertex 0 1.20104 1.54749
    endloop
  endfacet
  facet normal -1 0 0
    outer loop
      vertex 0 0.759906 0
      vertex 0 1.08091 0.327758
      vertex 0 0.919238 0.130761
    endloop
  endfacet
  facet normal -1 -0 0
    outer loop
      vertex 0 1.08091 0.327758
      vertex 0 0.759906 0
      vertex 0 1.08091 1.77224
    endloop
  endfacet
  facet normal -1 -0 0
    outer loop
      vertex 0 1.08091 1.77224
      vertex 0 0.759906 0
      vertex 0 0.919238 1.96924
    endloop
  endfacet
  facet normal -1 0 0
    outer loop
      vertex 0 0.759906 0
      vertex 0 0.72224 2.13091
      vertex 0 0.919238 1.96924
    endloop
  endfacet
  facet normal -1 0 0
    outer loop
      vertex 0 0.759906 0
      vertex 0 0.497488 2.25104
      vertex 0 0.72224 2.13091
    endloop
  endfacet
  facet normal -1 0 0
    outer loop
      vertex 0 0.759906 0
      vertex 0 0.253617 2.32502
      vertex 0 0.497488 2.25104
    endloop
  endfacet
  facet normal -1 0 0
    outer loop
      vertex 0 0.759906 0
      vertex 0 0 2.35
      vertex 0 0.253617 2.32502
    endloop
  endfacet
  facet normal -1 0 0
    outer loop
      vertex 0 0.759906 0
      vertex 0 -0.253617 2.32502
      vertex 0 0 2.35
    endloop
  endfacet
  facet normal -1 0 0
    outer loop
      vertex 0 0.759906 0
      vertex 0 -0.497488 2.25104
      vertex 0 -0.253617 2.32502
    endloop
  endfacet
  facet normal -1 0 0
    outer loop
      vertex 0 0.759906 0
      vertex 0 -0.72224 2.13091
      vertex 0 -0.497488 2.25104
    endloop
  endfacet
  facet normal -1 0 0
    outer loop
      vertex 0 -0.759906 0
      vertex 0 -0.72224 2.13091
      vertex 0 0.759906 0
    endloop
  endfacet
  facet normal -1 0 0
    outer loop
      vertex 0 -1.08091 0.327758
      vertex 0 -0.759906 0
      vertex 0 -0.919238 0.130761
    endloop
  endfacet
  facet normal -1 0 0
    outer loop
      vertex 0 -0.759906 0
      vertex 0 -0.919238 1.96924
      vertex 0 -0.72224 2.13091
    endloop
  endfacet
  facet normal -1 0 0
    outer loop
      vertex 0 -0.759906 0
      vertex 0 -1.08091 0.327758
      vertex 0 -0.919238 1.96924
    endloop
  endfacet
  facet normal -1 0 0
    outer loop
      vertex 0 -1.08091 0.327758
      vertex 0 -1.08091 1.77224
      vertex 0 -0.919238 1.96924
    endloop
  endfacet
  facet normal -1 0 0
    outer loop
      vertex 0 -1.20104 0.552511
      vertex 0 -1.08091 1.77224
      vertex 0 -1.08091 0.327758
    endloop
  endfacet
  facet normal -1 0 0
    outer loop
      vertex 0 -1.20104 0.552511
      vertex 0 -1.20104 1.54749
      vertex 0 -1.08091 1.77224
    endloop
  endfacet
  facet normal -1 0 0
    outer loop
      vertex 0 -1.27502 0.796382
      vertex 0 -1.20104 1.54749
      vertex 0 -1.20104 0.552511
    endloop
  endfacet
  facet normal -1 0 0
    outer loop
      vertex 0 -1.27502 0.796382
      vertex 0 -1.27502 1.30362
      vertex 0 -1.20104 1.54749
    endloop
  endfacet
  facet normal -1 0 -0
    outer loop
      vertex 0 -1.27502 1.30362
      vertex 0 -1.27502 0.796382
      vertex 0 -1.3 1.05
    endloop
  endfacet
  facet normal 0 -0.881924 0.471393
    outer loop
      vertex 0 -1.20104 1.54749
      vertex 12.4 -1.08091 1.77224
      vertex 0 -1.08091 1.77224
    endloop
  endfacet
  facet normal 0 -0.881924 0.471393
    outer loop
      vertex 12.4 -1.08091 1.77224
      vertex 0 -1.20104 1.54749
      vertex 12.4 -1.20104 1.54749
    endloop
  endfacet
  facet normal 0 0.634395 -0.773009
    outer loop
      vertex 0 0.759906 0
      vertex 12.4 0.919238 0.130761
      vertex 12.4 0.759906 0
    endloop
  endfacet
  facet normal 0 0.634395 -0.773009
    outer loop
      vertex 12.4 0.919238 0.130761
      vertex 0 0.759906 0
      vertex 0 0.919238 0.130761
    endloop
  endfacet
  facet normal 0 0.773014 0.634389
    outer loop
      vertex 12.4 1.08091 1.77224
      vertex 0 0.919238 1.96924
      vertex 12.4 0.919238 1.96924
    endloop
  endfacet
  facet normal 0 0.773014 0.634389
    outer loop
      vertex 0 0.919238 1.96924
      vertex 12.4 1.08091 1.77224
      vertex 0 1.08091 1.77224
    endloop
  endfacet
  facet normal 0 -0.634395 -0.773009
    outer loop
      vertex 0 -0.919238 0.130761
      vertex 12.4 -0.759906 0
      vertex 12.4 -0.919238 0.130761
    endloop
  endfacet
  facet normal -0 -0.634395 -0.773009
    outer loop
      vertex 12.4 -0.759906 0
      vertex 0 -0.919238 0.130761
      vertex 0 -0.759906 0
    endloop
  endfacet
  facet normal 0 0.881924 0.471393
    outer loop
      vertex 12.4 1.20104 1.54749
      vertex 0 1.08091 1.77224
      vertex 12.4 1.08091 1.77224
    endloop
  endfacet
  facet normal 0 0.881924 0.471393
    outer loop
      vertex 0 1.08091 1.77224
      vertex 12.4 1.20104 1.54749
      vertex 0 1.20104 1.54749
    endloop
  endfacet
  facet normal -0 0.0980207 0.995184
    outer loop
      vertex 0 0.253617 2.32502
      vertex 12.4 0 2.35
      vertex 12.4 0.253617 2.32502
    endloop
  endfacet
  facet normal 0 0.0980207 0.995184
    outer loop
      vertex 12.4 0 2.35
      vertex 0 0.253617 2.32502
      vertex 0 0 2.35
    endloop
  endfacet
  facet normal 0 -0.881926 -0.471388
    outer loop
      vertex 0 -1.08091 0.327758
      vertex 12.4 -1.20104 0.552511
      vertex 0 -1.20104 0.552511
    endloop
  endfacet
  facet normal 0 -0.881926 -0.471388
    outer loop
      vertex 12.4 -1.20104 0.552511
      vertex 0 -1.08091 0.327758
      vertex 12.4 -1.08091 0.327758
    endloop
  endfacet
  facet normal 0 0.956937 0.290295
    outer loop
      vertex 12.4 1.27502 1.30362
      vertex 0 1.20104 1.54749
      vertex 12.4 1.20104 1.54749
    endloop
  endfacet
  facet normal 0 0.956937 0.290295
    outer loop
      vertex 0 1.20104 1.54749
      vertex 12.4 1.27502 1.30362
      vertex 0 1.27502 1.30362
    endloop
  endfacet
  facet normal 0 -0.773009 -0.634395
    outer loop
      vertex 0 -0.919238 0.130761
      vertex 12.4 -1.08091 0.327758
      vertex 0 -1.08091 0.327758
    endloop
  endfacet
  facet normal 0 -0.773009 -0.634395
    outer loop
      vertex 12.4 -1.08091 0.327758
      vertex 0 -0.919238 0.130761
      vertex 12.4 -0.919238 0.130761
    endloop
  endfacet
  facet normal 0 -0.471389 0.881925
    outer loop
      vertex 0 -0.497488 2.25104
      vertex 12.4 -0.72224 2.13091
      vertex 12.4 -0.497488 2.25104
    endloop
  endfacet
  facet normal 0 -0.471389 0.881925
    outer loop
      vertex 12.4 -0.72224 2.13091
      vertex 0 -0.497488 2.25104
      vertex 0 -0.72224 2.13091
    endloop
  endfacet
  facet normal 0 -0.956937 0.290295
    outer loop
      vertex 0 -1.27502 1.30362
      vertex 12.4 -1.20104 1.54749
      vertex 0 -1.20104 1.54749
    endloop
  endfacet
  facet normal 0 -0.956937 0.290295
    outer loop
      vertex 12.4 -1.20104 1.54749
      vertex 0 -1.27502 1.30362
      vertex 12.4 -1.27502 1.30362
    endloop
  endfacet
  facet normal -0 0.471389 0.881925
    outer loop
      vertex 0 0.72224 2.13091
      vertex 12.4 0.497488 2.25104
      vertex 12.4 0.72224 2.13091
    endloop
  endfacet
  facet normal 0 0.471389 0.881925
    outer loop
      vertex 12.4 0.497488 2.25104
      vertex 0 0.72224 2.13091
      vertex 0 0.497488 2.25104
    endloop
  endfacet
  facet normal 0 -0.956938 -0.290294
    outer loop
      vertex 0 -1.20104 0.552511
      vertex 12.4 -1.27502 0.796382
      vertex 0 -1.27502 0.796382
    endloop
  endfacet
  facet normal 0 -0.956938 -0.290294
    outer loop
      vertex 12.4 -1.27502 0.796382
      vertex 0 -1.20104 0.552511
      vertex 12.4 -1.20104 0.552511
    endloop
  endfacet
  facet normal 0 0.773009 -0.634395
    outer loop
      vertex 12.4 0.919238 0.130761
      vertex 0 1.08091 0.327758
      vertex 12.4 1.08091 0.327758
    endloop
  endfacet
  facet normal 0 0.773009 -0.634395
    outer loop
      vertex 0 1.08091 0.327758
      vertex 12.4 0.919238 0.130761
      vertex 0 0.919238 0.130761
    endloop
  endfacet
  facet normal 0 -0.0980207 0.995184
    outer loop
      vertex 0 0 2.35
      vertex 12.4 -0.253617 2.32502
      vertex 12.4 0 2.35
    endloop
  endfacet
  facet normal 0 -0.0980207 0.995184
    outer loop
      vertex 12.4 -0.253617 2.32502
      vertex 0 0 2.35
      vertex 0 -0.253617 2.32502
    endloop
  endfacet
  facet normal 0 0.881926 -0.471388
    outer loop
      vertex 12.4 1.08091 0.327758
      vertex 0 1.20104 0.552511
      vertex 12.4 1.20104 0.552511
    endloop
  endfacet
  facet normal 0 0.881926 -0.471388
    outer loop
      vertex 0 1.20104 0.552511
      vertex 12.4 1.08091 0.327758
      vertex 0 1.08091 0.327758
    endloop
  endfacet
  facet normal 0 -0.634388 0.773014
    outer loop
      vertex 0 -0.72224 2.13091
      vertex 12.4 -0.919238 1.96924
      vertex 12.4 -0.72224 2.13091
    endloop
  endfacet
  facet normal 0 -0.634388 0.773014
    outer loop
      vertex 12.4 -0.919238 1.96924
      vertex 0 -0.72224 2.13091
      vertex 0 -0.919238 1.96924
    endloop
  endfacet
  facet normal -0 0.290294 0.956938
    outer loop
      vertex 0 0.497488 2.25104
      vertex 12.4 0.253617 2.32502
      vertex 12.4 0.497488 2.25104
    endloop
  endfacet
  facet normal 0 0.290294 0.956938
    outer loop
      vertex 12.4 0.253617 2.32502
      vertex 0 0.497488 2.25104
      vertex 0 0.253617 2.32502
    endloop
  endfacet
  facet normal 0 0.995184 -0.0980203
    outer loop
      vertex 12.4 1.27502 0.796382
      vertex 0 1.3 1.05
      vertex 12.4 1.3 1.05
    endloop
  endfacet
  facet normal 0 0.995184 -0.0980203
    outer loop
      vertex 0 1.3 1.05
      vertex 12.4 1.27502 0.796382
      vertex 0 1.27502 0.796382
    endloop
  endfacet
  facet normal 0 0.995184 0.0980195
    outer loop
      vertex 12.4 1.3 1.05
      vertex 0 1.27502 1.30362
      vertex 12.4 1.27502 1.30362
    endloop
  endfacet
  facet normal 0 0.995184 0.0980195
    outer loop
      vertex 0 1.27502 1.30362
      vertex 12.4 1.3 1.05
      vertex 0 1.3 1.05
    endloop
  endfacet
  facet normal 1 0 0
    outer loop
      vertex 12.4 1.27502 1.30362
      vertex 12.4 1.27502 0.796382
      vertex 12.4 1.3 1.05
    endloop
  endfacet
  facet normal 1 0 0
    outer loop
      vertex 12.4 1.20104 1.54749
      vertex 12.4 1.27502 0.796382
      vertex 12.4 1.27502 1.30362
    endloop
  endfacet
  facet normal 1 0 0
    outer loop
      vertex 12.4 1.20104 1.54749
      vertex 12.4 1.20104 0.552511
      vertex 12.4 1.27502 0.796382
    endloop
  endfacet
  facet normal 1 0 0
    outer loop
      vertex 12.4 1.08091 1.77224
      vertex 12.4 1.20104 0.552511
      vertex 12.4 1.20104 1.54749
    endloop
  endfacet
  facet normal 1 0 0
    outer loop
      vertex 12.4 1.08091 1.77224
      vertex 12.4 1.08091 0.327758
      vertex 12.4 1.20104 0.552511
    endloop
  endfacet
  facet normal 1 0 0
    outer loop
      vertex 12.4 0.919238 1.96924
      vertex 12.4 1.08091 0.327758
      vertex 12.4 1.08091 1.77224
    endloop
  endfacet
  facet normal 1 0 0
    outer loop
      vertex 12.4 0.759906 0
      vertex 12.4 1.08091 0.327758
      vertex 12.4 0.919238 1.96924
    endloop
  endfacet
  facet normal 1 0 0
    outer loop
      vertex 12.4 1.08091 0.327758
      vertex 12.4 0.759906 0
      vertex 12.4 0.919238 0.130761
    endloop
  endfacet
  facet normal 1 0 0
    outer loop
      vertex 12.4 0.72224 2.13091
      vertex 12.4 0.759906 0
      vertex 12.4 0.919238 1.96924
    endloop
  endfacet
  facet normal 1 0 0
    outer loop
      vertex 12.4 0.497488 2.25104
      vertex 12.4 0.759906 0
      vertex 12.4 0.72224 2.13091
    endloop
  endfacet
  facet normal 1 0 0
    outer loop
      vertex 12.4 0.253617 2.32502
      vertex 12.4 0.759906 0
      vertex 12.4 0.497488 2.25104
    endloop
  endfacet
  facet normal 1 0 0
    outer loop
      vertex 12.4 0 2.35
      vertex 12.4 0.759906 0
      vertex 12.4 0.253617 2.32502
    endloop
  endfacet
  facet normal 1 -0 0
    outer loop
      vertex 12.4 -0.253617 2.32502
      vertex 12.4 0.759906 0
      vertex 12.4 0 2.35
    endloop
  endfacet
  facet normal 1 -0 0
    outer loop
      vertex 12.4 -0.497488 2.25104
      vertex 12.4 0.759906 0
      vertex 12.4 -0.253617 2.32502
    endloop
  endfacet
  facet normal 1 -0 0
    outer loop
      vertex 12.4 -0.72224 2.13091
      vertex 12.4 0.759906 0
      vertex 12.4 -0.497488 2.25104
    endloop
  endfacet
  facet normal 1 0 0
    outer loop
      vertex 12.4 -0.72224 2.13091
      vertex 12.4 -0.759906 0
      vertex 12.4 0.759906 0
    endloop
  endfacet
  facet normal 1 -0 0
    outer loop
      vertex 12.4 -0.919238 1.96924
      vertex 12.4 -0.759906 0
      vertex 12.4 -0.72224 2.13091
    endloop
  endfacet
  facet normal 1 -0 0
    outer loop
      vertex 12.4 -1.08091 1.77224
      vertex 12.4 -0.759906 0
      vertex 12.4 -0.919238 1.96924
    endloop
  endfacet
  facet normal 1 -0 0
    outer loop
      vertex 12.4 -1.08091 0.327758
      vertex 12.4 -0.759906 0
      vertex 12.4 -1.08091 1.77224
    endloop
  endfacet
  facet normal 1 0 0
    outer loop
      vertex 12.4 -0.759906 0
      vertex 12.4 -1.08091 0.327758
      vertex 12.4 -0.919238 0.130761
    endloop
  endfacet
  facet normal 1 -0 0
    outer loop
      vertex 12.4 -1.20104 1.54749
      vertex 12.4 -1.08091 0.327758
      vertex 12.4 -1.08091 1.77224
    endloop
  endfacet
  facet normal 1 0 0
    outer loop
      vertex 12.4 -1.20104 1.54749
      vertex 12.4 -1.20104 0.552511
      vertex 12.4 -1.08091 0.327758
    endloop
  endfacet
  facet normal 1 -0 0
    outer loop
      vertex 12.4 -1.27502 1.30362
      vertex 12.4 -1.20104 0.552511
      vertex 12.4 -1.20104 1.54749
    endloop
  endfacet
  facet normal 1 0 0
    outer loop
      vertex 12.4 -1.27502 1.30362
      vertex 12.4 -1.27502 0.796382
      vertex 12.4 -1.20104 0.552511
    endloop
  endfacet
  facet normal 1 0 -0
    outer loop
      vertex 12.4 -1.27502 0.796382
      vertex 12.4 -1.27502 1.30362
      vertex 12.4 -1.3 1.05
    endloop
  endfacet
  facet normal 0 -0.995184 -0.0980203
    outer loop
      vertex 0 -1.27502 0.796382
      vertex 12.4 -1.3 1.05
      vertex 0 -1.3 1.05
    endloop
  endfacet
  facet normal 0 -0.995184 -0.0980203
    outer loop
      vertex 12.4 -1.3 1.05
      vertex 0 -1.27502 0.796382
      vertex 12.4 -1.27502 0.796382
    endloop
  endfacet
  facet normal 0 -0.995184 0.0980195
    outer loop
      vertex 0 -1.3 1.05
      vertex 12.4 -1.27502 1.30362
      vertex 0 -1.27502 1.30362
    endloop
  endfacet
  facet normal 0 -0.995184 0.0980195
    outer loop
      vertex 12.4 -1.27502 1.30362
      vertex 0 -1.3 1.05
      vertex 12.4 -1.3 1.05
    endloop
  endfacet
  facet normal -0 0.634388 0.773014
    outer loop
      vertex 0 0.919238 1.96924
      vertex 12.4 0.72224 2.13091
      vertex 12.4 0.919238 1.96924
    endloop
  endfacet
  facet normal 0 0.634388 0.773014
    outer loop
      vertex 12.4 0.72224 2.13091
      vertex 0 0.919238 1.96924
      vertex 0 0.72224 2.13091
    endloop
  endfacet
  facet normal 0 0 -1
    outer loop
      vertex 0 -0.759906 0
      vertex 12.4 0.759906 0
      vertex 12.4 -0.759906 0
    endloop
  endfacet
  facet normal -0 0 -1
    outer loop
      vertex 12.4 0.759906 0
      vertex 0 -0.759906 0
      vertex 0 0.759906 0
    endloop
  endfacet
endsolid OpenSCAD_Model
