solid OpenSCAD_Model
  facet normal 0 0 -1
    outer loop
      vertex -5.65001 -2.89904 0
      vertex -5 -4.02488 0
      vertex -5.32849 -4.18687 0
    endloop
  endfacet
  facet normal 0 0 -1
    outer loop
      vertex -5.33934 -2.66067 0
      vertex -4.17862 -3.30455 0
      vertex -4.42011 -3.57991 0
    endloop
  endfacet
  facet normal 0 0 -1
    outer loop
      vertex -3.97513 -3.00001 0
      vertex -5.10097 -2.35 0
      vertex -3.81314 -2.67152 0
    endloop
  endfacet
  facet normal -0 0 -1
    outer loop
      vertex -3.69542 -2.3247 0
      vertex -3.81314 -2.67152 0
      vertex -4.95111 -1.98823 0
    endloop
  endfacet
  facet normal 0 0 -1
    outer loop
      vertex -3.63083 -2.00001 0
      vertex -4.91284 -1.40422 0
      vertex -4.95111 -1.21177 0
    endloop
  endfacet
  facet normal 0 0 -1
    outer loop
      vertex -5.01419 -1.02598 0
      vertex -4.67107 0.599994 0
      vertex -3.63083 -2.00001 0
    endloop
  endfacet
  facet normal 0 0 -1
    outer loop
      vertex -3.63083 -2.00001 0
      vertex -4.91284 -1.7958 0
      vertex -4.90001 -1.6 0
    endloop
  endfacet
  facet normal 0 0 -1
    outer loop
      vertex -4.69547 -3.82139 0
      vertex -5.48687 -2.79004 0
      vertex -5.33934 -2.66067 0
    endloop
  endfacet
  facet normal 0 0 -1
    outer loop
      vertex -6.03453 -4.37605 0
      vertex -6.01178 -3.0489 0
      vertex -5.67531 -4.30459 0
    endloop
  endfacet
  facet normal 0 0 -1
    outer loop
      vertex -3.63083 -2.00001 0
      vertex -4.67107 0.599994 0
      vertex 0.0999878 0.599994 0
    endloop
  endfacet
  facet normal 0 0 -1
    outer loop
      vertex 0.599988 -2.00001 0
      vertex -3.63083 -2.00001 0
      vertex 0.599988 -1.98015 0
    endloop
  endfacet
  facet normal 0 0 -1
    outer loop
      vertex 0.599988 -1.98015 0
      vertex 0.0999878 0.599994 0
      vertex 2.19999 1.2 0
    endloop
  endfacet
  facet normal 0 -0 -1
    outer loop
      vertex 6.25 4.2 0
      vertex 6.31028 3.97499 0
      vertex 5.0897 3.97499 0
    endloop
  endfacet
  facet normal 0 -0 -1
    outer loop
      vertex 9.14999 4.2 0
      vertex 9.39999 4.2 0
      vertex 9.0897 3.97499 0
    endloop
  endfacet
  facet normal 0 0 -1
    outer loop
      vertex 9.0897 3.97499 0
      vertex 9.39999 4.2 0
      vertex 10.2 3.4 0
    endloop
  endfacet
  facet normal 0 0 -1
    outer loop
      vertex 10.2 1.2 0
      vertex 8.69999 3.74999 0
      vertex 10.2 3.4 0
    endloop
  endfacet
  facet normal 0 0 -1
    outer loop
      vertex 7.0897 3.97499 0
      vertex 8.25 4.2 0
      vertex 8.31028 3.97499 0
    endloop
  endfacet
  facet normal 0 0 -1
    outer loop
      vertex 8.925 3.81028 0
      vertex 9.0897 3.97499 0
      vertex 10.2 3.4 0
    endloop
  endfacet
  facet normal 0 0 -1
    outer loop
      vertex 10.2 1.2 0
      vertex 8.47499 3.81028 0
      vertex 8.69999 3.74999 0
    endloop
  endfacet
  facet normal 0 0 -1
    outer loop
      vertex 8.69999 3.74999 0
      vertex 8.925 3.81028 0
      vertex 10.2 3.4 0
    endloop
  endfacet
  facet normal 0 -0 -1
    outer loop
      vertex 7.0897 3.97499 0
      vertex 8.31028 3.97499 0
      vertex 6.925 3.81028 0
    endloop
  endfacet
  facet normal 0 0 -1
    outer loop
      vertex 7.0897 3.97499 0
      vertex 7.14999 4.2 0
      vertex 8.25 4.2 0
    endloop
  endfacet
  facet normal 0 0 -1
    outer loop
      vertex 10.2 1.2 0
      vertex 6.69999 3.74999 0
      vertex 6.925 3.81028 0
    endloop
  endfacet
  facet normal 0 -0 -1
    outer loop
      vertex 5.14999 4.2 0
      vertex 6.25 4.2 0
      vertex 5.0897 3.97499 0
    endloop
  endfacet
  facet normal 0 0 -1
    outer loop
      vertex 6.925 3.81028 0
      vertex 8.31028 3.97499 0
      vertex 8.47499 3.81028 0
    endloop
  endfacet
  facet normal 0 0 -1
    outer loop
      vertex 10.2 1.2 0
      vertex 2.19999 1.2 0
      vertex 6.69999 3.74999 0
    endloop
  endfacet
  facet normal 0 0 -1
    outer loop
      vertex 10.2 1.2 0
      vertex 6.925 3.81028 0
      vertex 8.47499 3.81028 0
    endloop
  endfacet
  facet normal 0 -0 -1
    outer loop
      vertex 4.925 3.81028 0
      vertex 6.47499 3.81028 0
      vertex 4.69999 3.74999 0
    endloop
  endfacet
  facet normal 0 0 -1
    outer loop
      vertex 2.19999 1.2 0
      vertex 4.47499 3.81028 0
      vertex 4.69999 3.74999 0
    endloop
  endfacet
  facet normal 0 0 -1
    outer loop
      vertex 3.3 4.2 0
      vertex 4.31028 3.97499 0
      vertex 4.47499 3.81028 0
    endloop
  endfacet
  facet normal 0 -0 -1
    outer loop
      vertex 5.0897 3.97499 0
      vertex 6.31028 3.97499 0
      vertex 4.925 3.81028 0
    endloop
  endfacet
  facet normal 0 0 -1
    outer loop
      vertex 4.69999 3.74999 0
      vertex 6.47499 3.81028 0
      vertex 6.69999 3.74999 0
    endloop
  endfacet
  facet normal 0 0 -1
    outer loop
      vertex 4.925 3.81028 0
      vertex 6.31028 3.97499 0
      vertex 6.47499 3.81028 0
    endloop
  endfacet
  facet normal 0 0 -1
    outer loop
      vertex 2.19999 1.2 0
      vertex 4.69999 3.74999 0
      vertex 6.69999 3.74999 0
    endloop
  endfacet
  facet normal 0 0 -1
    outer loop
      vertex 3.3 4.2 0
      vertex 4.25 4.2 0
      vertex 4.31028 3.97499 0
    endloop
  endfacet
  facet normal 0 0 -1
    outer loop
      vertex 2.19999 1.2 0
      vertex 3.3 4.2 0
      vertex 4.47499 3.81028 0
    endloop
  endfacet
  facet normal -0 0 -1
    outer loop
      vertex 0.599988 -1.98015 0
      vertex -3.63083 -2.00001 0
      vertex 0.0999878 0.599994 0
    endloop
  endfacet
  facet normal 0 0 -1
    outer loop
      vertex -6.40001 -0.100003 0
      vertex -5.40001 1.01113 0
      vertex -6.20421 -0.112836 0
    endloop
  endfacet
  facet normal -0 0 -1
    outer loop
      vertex 2.19999 1.2 0
      vertex 0.0999878 0.599994 0
      vertex 3.3 4.2 0
    endloop
  endfacet
  facet normal -0 0 -1
    outer loop
      vertex -6.5958 -0.112836 0
      vertex -6.78824 -0.15112 0
      vertex -5.40001 1.01113 0
    endloop
  endfacet
  facet normal -0 0 -1
    outer loop
      vertex -6.97403 -0.214185 0
      vertex -7.15001 -0.300977 0
      vertex -9.17501 4.71953 0
    endloop
  endfacet
  facet normal -0 0 -1
    outer loop
      vertex -6.78824 -0.15112 0
      vertex -6.97403 -0.214185 0
      vertex -9.17501 4.71953 0
    endloop
  endfacet
  facet normal 0 0 -1
    outer loop
      vertex -6.78824 -3.0489 0
      vertex -6.5958 -3.08717 0
      vertex -6.76548 -4.37605 0
    endloop
  endfacet
  facet normal 0 0 -1
    outer loop
      vertex -9.025 7.66954 0
      vertex -8.30001 8.39453 0
      vertex -6.22501 7.66954 0
    endloop
  endfacet
  facet normal 0 0 -1
    outer loop
      vertex -5.40001 1.01113 0
      vertex -9.17501 4.71953 0
      vertex -6.22501 4.71953 0
    endloop
  endfacet
  facet normal 0 0 -1
    outer loop
      vertex -7.4328 -4.20001 0
      vertex -7.31314 -2.79004 0
      vertex -7.15001 -2.89904 0
    endloop
  endfacet
  facet normal 0 0 -1
    outer loop
      vertex -6.22501 4.71953 0
      vertex -6.22501 7.66954 0
      vertex -5.40001 8.39453 0
    endloop
  endfacet
  facet normal 0 0 -1
    outer loop
      vertex -6.22501 7.66954 0
      vertex -8.30001 8.39453 0
      vertex -5.40001 8.39453 0
    endloop
  endfacet
  facet normal 0 0 -1
    outer loop
      vertex -5.40001 1.01113 0
      vertex -6.22501 4.71953 0
      vertex -5.40001 8.39453 0
    endloop
  endfacet
  facet normal -0 0 -1
    outer loop
      vertex -9.17501 4.71953 0
      vertex -10.2 -4.20001 0
      vertex -10.2 6.49454 0
    endloop
  endfacet
  facet normal 0 -0 -1
    outer loop
      vertex -9.17501 7.51953 0
      vertex -9.17501 4.71953 0
      vertex -10.2 6.49454 0
    endloop
  endfacet
  facet normal -0 0 -1
    outer loop
      vertex -6.03453 -4.37605 0
      vertex -6.40001 -4.40001 0
      vertex -6.40001 -3.1 0
    endloop
  endfacet
  facet normal 0 0 -1
    outer loop
      vertex -7.1247 -4.30459 0
      vertex -6.78824 -3.0489 0
      vertex -6.76548 -4.37605 0
    endloop
  endfacet
  facet normal -0 0 -1
    outer loop
      vertex -6.40001 -3.1 0
      vertex -6.76548 -4.37605 0
      vertex -6.5958 -3.08717 0
    endloop
  endfacet
  facet normal 0 -0 -1
    outer loop
      vertex -6.40001 -3.1 0
      vertex -6.40001 -4.40001 0
      vertex -6.76548 -4.37605 0
    endloop
  endfacet
  facet normal 0 0 -1
    outer loop
      vertex -7.4328 -4.20001 0
      vertex -6.78824 -3.0489 0
      vertex -7.1247 -4.30459 0
    endloop
  endfacet
  facet normal 0 0 -1
    outer loop
      vertex -7.4328 -4.20001 0
      vertex -6.97403 -2.98582 0
      vertex -6.78824 -3.0489 0
    endloop
  endfacet
  facet normal 0 0 -1
    outer loop
      vertex -7.4328 -4.20001 0
      vertex -7.15001 -2.89904 0
      vertex -6.97403 -2.98582 0
    endloop
  endfacet
  facet normal 0 0 -1
    outer loop
      vertex -10.2 -4.20001 0
      vertex -7.88718 -1.40422 0
      vertex -7.90001 -1.6 0
    endloop
  endfacet
  facet normal 0 0 -1
    outer loop
      vertex -7.4328 -4.20001 0
      vertex -7.46067 -2.66067 0
      vertex -7.31314 -2.79004 0
    endloop
  endfacet
  facet normal 0 0 -1
    outer loop
      vertex -7.4328 -4.20001 0
      vertex -7.59004 -2.51315 0
      vertex -7.46067 -2.66067 0
    endloop
  endfacet
  facet normal 0 0 -1
    outer loop
      vertex -7.4328 -4.20001 0
      vertex -10.2 -4.20001 0
      vertex -7.59004 -2.51315 0
    endloop
  endfacet
  facet normal -0 0 -1
    outer loop
      vertex -7.59004 -2.51315 0
      vertex -10.2 -4.20001 0
      vertex -7.69904 -2.35 0
    endloop
  endfacet
  facet normal -0 0 -1
    outer loop
      vertex -7.69904 -2.35 0
      vertex -10.2 -4.20001 0
      vertex -7.78583 -2.17404 0
    endloop
  endfacet
  facet normal -0 0 -1
    outer loop
      vertex -7.78583 -2.17404 0
      vertex -10.2 -4.20001 0
      vertex -7.8489 -1.98823 0
    endloop
  endfacet
  facet normal -0 0 -1
    outer loop
      vertex -7.8489 -1.98823 0
      vertex -10.2 -4.20001 0
      vertex -7.88718 -1.7958 0
    endloop
  endfacet
  facet normal -0 0 -1
    outer loop
      vertex -7.88718 -1.7958 0
      vertex -10.2 -4.20001 0
      vertex -7.90001 -1.6 0
    endloop
  endfacet
  facet normal 0 0 -1
    outer loop
      vertex -10.2 -4.20001 0
      vertex -7.8489 -1.21177 0
      vertex -7.88718 -1.40422 0
    endloop
  endfacet
  facet normal 0 0 -1
    outer loop
      vertex -10.2 -4.20001 0
      vertex -9.17501 4.71953 0
      vertex -7.8489 -1.21177 0
    endloop
  endfacet
  facet normal 0 0 -1
    outer loop
      vertex -7.8489 -1.21177 0
      vertex -9.17501 4.71953 0
      vertex -7.78583 -1.02598 0
    endloop
  endfacet
  facet normal 0 0 -1
    outer loop
      vertex -7.78583 -1.02598 0
      vertex -9.17501 4.71953 0
      vertex -7.69904 -0.850003 0
    endloop
  endfacet
  facet normal 0 0 -1
    outer loop
      vertex -7.69904 -0.850003 0
      vertex -9.17501 4.71953 0
      vertex -7.59004 -0.686871 0
    endloop
  endfacet
  facet normal 0 0 -1
    outer loop
      vertex -7.59004 -0.686871 0
      vertex -9.17501 4.71953 0
      vertex -7.46067 -0.539349 0
    endloop
  endfacet
  facet normal 0 0 -1
    outer loop
      vertex -7.46067 -0.539349 0
      vertex -9.17501 4.71953 0
      vertex -7.31314 -0.40997 0
    endloop
  endfacet
  facet normal 0 0 -1
    outer loop
      vertex -7.31314 -0.40997 0
      vertex -9.17501 4.71953 0
      vertex -7.15001 -0.300977 0
    endloop
  endfacet
  facet normal -0 0 -1
    outer loop
      vertex -5.40001 1.01113 0
      vertex -6.78824 -0.15112 0
      vertex -9.17501 4.71953 0
    endloop
  endfacet
  facet normal -0 0 -1
    outer loop
      vertex -6.40001 -0.100003 0
      vertex -6.5958 -0.112836 0
      vertex -5.40001 1.01113 0
    endloop
  endfacet
  facet normal 0 0 -1
    outer loop
      vertex -6.20421 -0.112836 0
      vertex -5.40001 1.01113 0
      vertex -6.01178 -0.15112 0
    endloop
  endfacet
  facet normal 0 0 -1
    outer loop
      vertex -6.01178 -0.15112 0
      vertex -5.40001 1.01113 0
      vertex -5.82598 -0.214185 0
    endloop
  endfacet
  facet normal 0 0 -1
    outer loop
      vertex -5.82598 -0.214185 0
      vertex -5.40001 1.01113 0
      vertex -5.32849 0.98685 0
    endloop
  endfacet
  facet normal -0 0 -1
    outer loop
      vertex -5 0.824863 0
      vertex -5.82598 -0.214185 0
      vertex -5.32849 0.98685 0
    endloop
  endfacet
  facet normal 0 0 -1
    outer loop
      vertex -5 0.824863 0
      vertex -5.65001 -0.300977 0
      vertex -5.82598 -0.214185 0
    endloop
  endfacet
  facet normal 0 0 -1
    outer loop
      vertex -5 0.824863 0
      vertex -5.48687 -0.40997 0
      vertex -5.65001 -0.300977 0
    endloop
  endfacet
  facet normal 0 -0 -1
    outer loop
      vertex -5 0.824863 0
      vertex -4.69547 0.621387 0
      vertex -5.48687 -0.40997 0
    endloop
  endfacet
  facet normal 0 0 -1
    outer loop
      vertex -5.33934 -0.539349 0
      vertex -5.48687 -0.40997 0
      vertex -4.67107 0.599994 0
    endloop
  endfacet
  facet normal 0 0 -1
    outer loop
      vertex -5.48687 -0.40997 0
      vertex -4.69547 0.621387 0
      vertex -4.67107 0.599994 0
    endloop
  endfacet
  facet normal 0 0 -1
    outer loop
      vertex -5.20998 -0.686871 0
      vertex -4.67107 0.599994 0
      vertex -5.10097 -0.850003 0
    endloop
  endfacet
  facet normal 0 0 -1
    outer loop
      vertex -5.33934 -0.539349 0
      vertex -4.67107 0.599994 0
      vertex -5.20998 -0.686871 0
    endloop
  endfacet
  facet normal 0 0 -1
    outer loop
      vertex -5.10097 -0.850003 0
      vertex -4.67107 0.599994 0
      vertex -5.01419 -1.02598 0
    endloop
  endfacet
  facet normal 0 0 -1
    outer loop
      vertex -3.63083 -2.00001 0
      vertex -4.95111 -1.21177 0
      vertex -5.01419 -1.02598 0
    endloop
  endfacet
  facet normal 0 0 -1
    outer loop
      vertex -4.90001 -1.6 0
      vertex -4.91284 -1.40422 0
      vertex -3.63083 -2.00001 0
    endloop
  endfacet
  facet normal 0 -0 -1
    outer loop
      vertex -4.91284 -1.7958 0
      vertex -3.63083 -2.00001 0
      vertex -4.95111 -1.98823 0
    endloop
  endfacet
  facet normal 0 0 -1
    outer loop
      vertex -4.95111 -1.98823 0
      vertex -3.63083 -2.00001 0
      vertex -3.69542 -2.3247 0
    endloop
  endfacet
  facet normal 0 0 -1
    outer loop
      vertex -5.01419 -2.17404 0
      vertex -4.95111 -1.98823 0
      vertex -3.81314 -2.67152 0
    endloop
  endfacet
  facet normal 0 0 -1
    outer loop
      vertex -5.10097 -2.35 0
      vertex -5.01419 -2.17404 0
      vertex -3.81314 -2.67152 0
    endloop
  endfacet
  facet normal 0 0 -1
    outer loop
      vertex -5.20998 -2.51315 0
      vertex -5.10097 -2.35 0
      vertex -3.97513 -3.00001 0
    endloop
  endfacet
  facet normal 0 0 -1
    outer loop
      vertex -4.17862 -3.30455 0
      vertex -5.20998 -2.51315 0
      vertex -3.97513 -3.00001 0
    endloop
  endfacet
  facet normal 0 0 -1
    outer loop
      vertex -4.17862 -3.30455 0
      vertex -5.33934 -2.66067 0
      vertex -5.20998 -2.51315 0
    endloop
  endfacet
  facet normal -0 0 -1
    outer loop
      vertex -4.42011 -3.57991 0
      vertex -4.69547 -3.82139 0
      vertex -5.33934 -2.66067 0
    endloop
  endfacet
  facet normal -0 0 -1
    outer loop
      vertex -4.69547 -3.82139 0
      vertex -5 -4.02488 0
      vertex -5.48687 -2.79004 0
    endloop
  endfacet
  facet normal 0 -0 -1
    outer loop
      vertex -5.48687 -2.79004 0
      vertex -5 -4.02488 0
      vertex -5.65001 -2.89904 0
    endloop
  endfacet
  facet normal 0 -0 -1
    outer loop
      vertex -5.65001 -2.89904 0
      vertex -5.32849 -4.18687 0
      vertex -5.82598 -2.98582 0
    endloop
  endfacet
  facet normal 0 -0 -1
    outer loop
      vertex -5.82598 -2.98582 0
      vertex -5.32849 -4.18687 0
      vertex -6.01178 -3.0489 0
    endloop
  endfacet
  facet normal 0 0 -1
    outer loop
      vertex -6.01178 -3.0489 0
      vertex -5.32849 -4.18687 0
      vertex -5.67531 -4.30459 0
    endloop
  endfacet
  facet normal 0 0 -1
    outer loop
      vertex -6.40001 -3.1 0
      vertex -6.20421 -3.08717 0
      vertex -6.03453 -4.37605 0
    endloop
  endfacet
  facet normal 0 0 -1
    outer loop
      vertex -6.20421 -3.08717 0
      vertex -6.01178 -3.0489 0
      vertex -6.03453 -4.37605 0
    endloop
  endfacet
  facet normal 0 -0 1
    outer loop
      vertex -5.32849 -4.18687 5
      vertex -5 -4.02488 5
      vertex -5.65001 -2.89904 5
    endloop
  endfacet
  facet normal 0 -0 1
    outer loop
      vertex -4.42011 -3.57991 5
      vertex -4.17862 -3.30455 5
      vertex -5.33934 -2.66067 5
    endloop
  endfacet
  facet normal 0 0 1
    outer loop
      vertex -3.81314 -2.67152 5
      vertex -5.10097 -2.35 5
      vertex -3.97513 -3.00001 5
    endloop
  endfacet
  facet normal 0 0 1
    outer loop
      vertex -4.95111 -1.98823 5
      vertex -3.81314 -2.67152 5
      vertex -3.69542 -2.3247 5
    endloop
  endfacet
  facet normal 0 0 1
    outer loop
      vertex -4.95111 -1.21177 5
      vertex -4.91284 -1.40422 5
      vertex -3.63083 -2.00001 5
    endloop
  endfacet
  facet normal 0 0 1
    outer loop
      vertex -3.63083 -2.00001 5
      vertex -4.67107 0.599994 5
      vertex -5.01419 -1.02598 5
    endloop
  endfacet
  facet normal 0 0 1
    outer loop
      vertex -4.90001 -1.6 5
      vertex -4.91284 -1.7958 5
      vertex -3.63083 -2.00001 5
    endloop
  endfacet
  facet normal 0 0 1
    outer loop
      vertex -5.33934 -2.66067 5
      vertex -5.48687 -2.79004 5
      vertex -4.69547 -3.82139 5
    endloop
  endfacet
  facet normal 0 0 1
    outer loop
      vertex -5.67531 -4.30459 5
      vertex -6.01178 -3.0489 5
      vertex -6.03453 -4.37605 5
    endloop
  endfacet
  facet normal 0 0 1
    outer loop
      vertex 0.0999878 0.599994 5
      vertex -4.67107 0.599994 5
      vertex -3.63083 -2.00001 5
    endloop
  endfacet
  facet normal 0 0 1
    outer loop
      vertex 0.599988 -1.98015 5
      vertex -3.63083 -2.00001 5
      vertex 0.599988 -2.00001 5
    endloop
  endfacet
  facet normal 0 0 1
    outer loop
      vertex 2.19999 1.2 5
      vertex 0.0999878 0.599994 5
      vertex 0.599988 -1.98015 5
    endloop
  endfacet
  facet normal 0 0 1
    outer loop
      vertex 5.0897 3.97499 5
      vertex 6.31028 3.97499 5
      vertex 6.25 4.2 5
    endloop
  endfacet
  facet normal 0 0 1
    outer loop
      vertex 9.0897 3.97499 5
      vertex 9.39999 4.2 5
      vertex 9.14999 4.2 5
    endloop
  endfacet
  facet normal 0 0 1
    outer loop
      vertex 10.2 3.4 5
      vertex 9.39999 4.2 5
      vertex 9.0897 3.97499 5
    endloop
  endfacet
  facet normal 0 0 1
    outer loop
      vertex 10.2 3.4 5
      vertex 8.69999 3.74999 5
      vertex 10.2 1.2 5
    endloop
  endfacet
  facet normal 0 0 1
    outer loop
      vertex 8.31028 3.97499 5
      vertex 8.25 4.2 5
      vertex 7.0897 3.97499 5
    endloop
  endfacet
  facet normal 0 0 1
    outer loop
      vertex 10.2 3.4 5
      vertex 9.0897 3.97499 5
      vertex 8.925 3.81028 5
    endloop
  endfacet
  facet normal 0 0 1
    outer loop
      vertex 8.69999 3.74999 5
      vertex 8.47499 3.81028 5
      vertex 10.2 1.2 5
    endloop
  endfacet
  facet normal 0 0 1
    outer loop
      vertex 10.2 3.4 5
      vertex 8.925 3.81028 5
      vertex 8.69999 3.74999 5
    endloop
  endfacet
  facet normal 0 0 1
    outer loop
      vertex 6.925 3.81028 5
      vertex 8.31028 3.97499 5
      vertex 7.0897 3.97499 5
    endloop
  endfacet
  facet normal 0 0 1
    outer loop
      vertex 8.25 4.2 5
      vertex 7.14999 4.2 5
      vertex 7.0897 3.97499 5
    endloop
  endfacet
  facet normal 0 0 1
    outer loop
      vertex 6.925 3.81028 5
      vertex 6.69999 3.74999 5
      vertex 10.2 1.2 5
    endloop
  endfacet
  facet normal 0 0 1
    outer loop
      vertex 5.0897 3.97499 5
      vertex 6.25 4.2 5
      vertex 5.14999 4.2 5
    endloop
  endfacet
  facet normal 0 0 1
    outer loop
      vertex 8.47499 3.81028 5
      vertex 8.31028 3.97499 5
      vertex 6.925 3.81028 5
    endloop
  endfacet
  facet normal 0 0 1
    outer loop
      vertex 6.69999 3.74999 5
      vertex 2.19999 1.2 5
      vertex 10.2 1.2 5
    endloop
  endfacet
  facet normal 0 0 1
    outer loop
      vertex 8.47499 3.81028 5
      vertex 6.925 3.81028 5
      vertex 10.2 1.2 5
    endloop
  endfacet
  facet normal 0 0 1
    outer loop
      vertex 4.69999 3.74999 5
      vertex 6.47499 3.81028 5
      vertex 4.925 3.81028 5
    endloop
  endfacet
  facet normal 0 0 1
    outer loop
      vertex 4.69999 3.74999 5
      vertex 4.47499 3.81028 5
      vertex 2.19999 1.2 5
    endloop
  endfacet
  facet normal 0 0 1
    outer loop
      vertex 4.47499 3.81028 5
      vertex 4.31028 3.97499 5
      vertex 3.3 4.2 5
    endloop
  endfacet
  facet normal 0 0 1
    outer loop
      vertex 4.925 3.81028 5
      vertex 6.31028 3.97499 5
      vertex 5.0897 3.97499 5
    endloop
  endfacet
  facet normal 0 0 1
    outer loop
      vertex 6.69999 3.74999 5
      vertex 6.47499 3.81028 5
      vertex 4.69999 3.74999 5
    endloop
  endfacet
  facet normal 0 0 1
    outer loop
      vertex 6.47499 3.81028 5
      vertex 6.31028 3.97499 5
      vertex 4.925 3.81028 5
    endloop
  endfacet
  facet normal 0 0 1
    outer loop
      vertex 6.69999 3.74999 5
      vertex 4.69999 3.74999 5
      vertex 2.19999 1.2 5
    endloop
  endfacet
  facet normal 0 0 1
    outer loop
      vertex 4.31028 3.97499 5
      vertex 4.25 4.2 5
      vertex 3.3 4.2 5
    endloop
  endfacet
  facet normal 0 0 1
    outer loop
      vertex 4.47499 3.81028 5
      vertex 3.3 4.2 5
      vertex 2.19999 1.2 5
    endloop
  endfacet
  facet normal 0 0 1
    outer loop
      vertex 0.0999878 0.599994 5
      vertex -3.63083 -2.00001 5
      vertex 0.599988 -1.98015 5
    endloop
  endfacet
  facet normal 0 -0 1
    outer loop
      vertex -6.20421 -0.112836 5
      vertex -5.40001 1.01113 5
      vertex -6.40001 -0.100003 5
    endloop
  endfacet
  facet normal 0 0 1
    outer loop
      vertex 3.3 4.2 5
      vertex 0.0999878 0.599994 5
      vertex 2.19999 1.2 5
    endloop
  endfacet
  facet normal 0 0 1
    outer loop
      vertex -5.40001 1.01113 5
      vertex -6.78824 -0.15112 5
      vertex -6.5958 -0.112836 5
    endloop
  endfacet
  facet normal 0 0 1
    outer loop
      vertex -9.17501 4.71953 5
      vertex -7.15001 -0.300977 5
      vertex -6.97403 -0.214185 5
    endloop
  endfacet
  facet normal 0 0 1
    outer loop
      vertex -9.17501 4.71953 5
      vertex -6.97403 -0.214185 5
      vertex -6.78824 -0.15112 5
    endloop
  endfacet
  facet normal 0 -0 1
    outer loop
      vertex -6.76548 -4.37605 5
      vertex -6.5958 -3.08717 5
      vertex -6.78824 -3.0489 5
    endloop
  endfacet
  facet normal 0 0 1
    outer loop
      vertex -6.22501 7.66954 5
      vertex -8.30001 8.39453 5
      vertex -9.025 7.66954 5
    endloop
  endfacet
  facet normal 0 0 1
    outer loop
      vertex -6.22501 4.71953 5
      vertex -9.17501 4.71953 5
      vertex -5.40001 1.01113 5
    endloop
  endfacet
  facet normal 0 0 1
    outer loop
      vertex -7.15001 -2.89904 5
      vertex -7.31314 -2.79004 5
      vertex -7.4328 -4.20001 5
    endloop
  endfacet
  facet normal 0 0 1
    outer loop
      vertex -5.40001 8.39453 5
      vertex -6.22501 7.66954 5
      vertex -6.22501 4.71953 5
    endloop
  endfacet
  facet normal 0 0 1
    outer loop
      vertex -5.40001 8.39453 5
      vertex -8.30001 8.39453 5
      vertex -6.22501 7.66954 5
    endloop
  endfacet
  facet normal 0 0 1
    outer loop
      vertex -5.40001 8.39453 5
      vertex -6.22501 4.71953 5
      vertex -5.40001 1.01113 5
    endloop
  endfacet
  facet normal 0 0 1
    outer loop
      vertex -10.2 6.49454 5
      vertex -10.2 -4.20001 5
      vertex -9.17501 4.71953 5
    endloop
  endfacet
  facet normal -0 0 1
    outer loop
      vertex -10.2 6.49454 5
      vertex -9.17501 4.71953 5
      vertex -9.17501 7.51953 5
    endloop
  endfacet
  facet normal 0 0 1
    outer loop
      vertex -6.40001 -3.1 5
      vertex -6.40001 -4.40001 5
      vertex -6.03453 -4.37605 5
    endloop
  endfacet
  facet normal 0 0 1
    outer loop
      vertex -6.76548 -4.37605 5
      vertex -6.78824 -3.0489 5
      vertex -7.1247 -4.30459 5
    endloop
  endfacet
  facet normal 0 0 1
    outer loop
      vertex -6.5958 -3.08717 5
      vertex -6.76548 -4.37605 5
      vertex -6.40001 -3.1 5
    endloop
  endfacet
  facet normal -0 0 1
    outer loop
      vertex -6.76548 -4.37605 5
      vertex -6.40001 -4.40001 5
      vertex -6.40001 -3.1 5
    endloop
  endfacet
  facet normal 0 -0 1
    outer loop
      vertex -7.1247 -4.30459 5
      vertex -6.78824 -3.0489 5
      vertex -7.4328 -4.20001 5
    endloop
  endfacet
  facet normal 0 0 1
    outer loop
      vertex -6.78824 -3.0489 5
      vertex -6.97403 -2.98582 5
      vertex -7.4328 -4.20001 5
    endloop
  endfacet
  facet normal 0 0 1
    outer loop
      vertex -6.97403 -2.98582 5
      vertex -7.15001 -2.89904 5
      vertex -7.4328 -4.20001 5
    endloop
  endfacet
  facet normal 0 -0 1
    outer loop
      vertex -7.90001 -1.6 5
      vertex -7.88718 -1.40422 5
      vertex -10.2 -4.20001 5
    endloop
  endfacet
  facet normal 0 0 1
    outer loop
      vertex -7.31314 -2.79004 5
      vertex -7.46067 -2.66067 5
      vertex -7.4328 -4.20001 5
    endloop
  endfacet
  facet normal 0 0 1
    outer loop
      vertex -7.46067 -2.66067 5
      vertex -7.59004 -2.51315 5
      vertex -7.4328 -4.20001 5
    endloop
  endfacet
  facet normal 0 0 1
    outer loop
      vertex -7.59004 -2.51315 5
      vertex -10.2 -4.20001 5
      vertex -7.4328 -4.20001 5
    endloop
  endfacet
  facet normal 0 0 1
    outer loop
      vertex -7.69904 -2.35 5
      vertex -10.2 -4.20001 5
      vertex -7.59004 -2.51315 5
    endloop
  endfacet
  facet normal 0 0 1
    outer loop
      vertex -7.78583 -2.17404 5
      vertex -10.2 -4.20001 5
      vertex -7.69904 -2.35 5
    endloop
  endfacet
  facet normal 0 0 1
    outer loop
      vertex -7.8489 -1.98823 5
      vertex -10.2 -4.20001 5
      vertex -7.78583 -2.17404 5
    endloop
  endfacet
  facet normal 0 0 1
    outer loop
      vertex -7.88718 -1.7958 5
      vertex -10.2 -4.20001 5
      vertex -7.8489 -1.98823 5
    endloop
  endfacet
  facet normal 0 0 1
    outer loop
      vertex -7.90001 -1.6 5
      vertex -10.2 -4.20001 5
      vertex -7.88718 -1.7958 5
    endloop
  endfacet
  facet normal 0 -0 1
    outer loop
      vertex -7.88718 -1.40422 5
      vertex -7.8489 -1.21177 5
      vertex -10.2 -4.20001 5
    endloop
  endfacet
  facet normal 0 0 1
    outer loop
      vertex -7.8489 -1.21177 5
      vertex -9.17501 4.71953 5
      vertex -10.2 -4.20001 5
    endloop
  endfacet
  facet normal 0 0 1
    outer loop
      vertex -7.78583 -1.02598 5
      vertex -9.17501 4.71953 5
      vertex -7.8489 -1.21177 5
    endloop
  endfacet
  facet normal 0 0 1
    outer loop
      vertex -7.69904 -0.850003 5
      vertex -9.17501 4.71953 5
      vertex -7.78583 -1.02598 5
    endloop
  endfacet
  facet normal 0 0 1
    outer loop
      vertex -7.59004 -0.686871 5
      vertex -9.17501 4.71953 5
      vertex -7.69904 -0.850003 5
    endloop
  endfacet
  facet normal 0 0 1
    outer loop
      vertex -7.46067 -0.539349 5
      vertex -9.17501 4.71953 5
      vertex -7.59004 -0.686871 5
    endloop
  endfacet
  facet normal 0 0 1
    outer loop
      vertex -7.31314 -0.40997 5
      vertex -9.17501 4.71953 5
      vertex -7.46067 -0.539349 5
    endloop
  endfacet
  facet normal 0 0 1
    outer loop
      vertex -7.15001 -0.300977 5
      vertex -9.17501 4.71953 5
      vertex -7.31314 -0.40997 5
    endloop
  endfacet
  facet normal 0 0 1
    outer loop
      vertex -9.17501 4.71953 5
      vertex -6.78824 -0.15112 5
      vertex -5.40001 1.01113 5
    endloop
  endfacet
  facet normal 0 0 1
    outer loop
      vertex -5.40001 1.01113 5
      vertex -6.5958 -0.112836 5
      vertex -6.40001 -0.100003 5
    endloop
  endfacet
  facet normal 0 -0 1
    outer loop
      vertex -6.01178 -0.15112 5
      vertex -5.40001 1.01113 5
      vertex -6.20421 -0.112836 5
    endloop
  endfacet
  facet normal 0 -0 1
    outer loop
      vertex -5.82598 -0.214185 5
      vertex -5.40001 1.01113 5
      vertex -6.01178 -0.15112 5
    endloop
  endfacet
  facet normal 0 0 1
    outer loop
      vertex -5.32849 0.98685 5
      vertex -5.40001 1.01113 5
      vertex -5.82598 -0.214185 5
    endloop
  endfacet
  facet normal 0 0 1
    outer loop
      vertex -5.32849 0.98685 5
      vertex -5.82598 -0.214185 5
      vertex -5 0.824863 5
    endloop
  endfacet
  facet normal -0 0 1
    outer loop
      vertex -5.82598 -0.214185 5
      vertex -5.65001 -0.300977 5
      vertex -5 0.824863 5
    endloop
  endfacet
  facet normal -0 0 1
    outer loop
      vertex -5.65001 -0.300977 5
      vertex -5.48687 -0.40997 5
      vertex -5 0.824863 5
    endloop
  endfacet
  facet normal 0 0 1
    outer loop
      vertex -5.48687 -0.40997 5
      vertex -4.69547 0.621387 5
      vertex -5 0.824863 5
    endloop
  endfacet
  facet normal 0 0 1
    outer loop
      vertex -4.67107 0.599994 5
      vertex -5.48687 -0.40997 5
      vertex -5.33934 -0.539349 5
    endloop
  endfacet
  facet normal 0 0 1
    outer loop
      vertex -4.67107 0.599994 5
      vertex -4.69547 0.621387 5
      vertex -5.48687 -0.40997 5
    endloop
  endfacet
  facet normal 0 -0 1
    outer loop
      vertex -5.10097 -0.850003 5
      vertex -4.67107 0.599994 5
      vertex -5.20998 -0.686871 5
    endloop
  endfacet
  facet normal 0 -0 1
    outer loop
      vertex -5.20998 -0.686871 5
      vertex -4.67107 0.599994 5
      vertex -5.33934 -0.539349 5
    endloop
  endfacet
  facet normal 0 -0 1
    outer loop
      vertex -5.01419 -1.02598 5
      vertex -4.67107 0.599994 5
      vertex -5.10097 -0.850003 5
    endloop
  endfacet
  facet normal 0 0 1
    outer loop
      vertex -5.01419 -1.02598 5
      vertex -4.95111 -1.21177 5
      vertex -3.63083 -2.00001 5
    endloop
  endfacet
  facet normal 0 0 1
    outer loop
      vertex -3.63083 -2.00001 5
      vertex -4.91284 -1.40422 5
      vertex -4.90001 -1.6 5
    endloop
  endfacet
  facet normal -0 0 1
    outer loop
      vertex -4.95111 -1.98823 5
      vertex -3.63083 -2.00001 5
      vertex -4.91284 -1.7958 5
    endloop
  endfacet
  facet normal 0 -0 1
    outer loop
      vertex -3.69542 -2.3247 5
      vertex -3.63083 -2.00001 5
      vertex -4.95111 -1.98823 5
    endloop
  endfacet
  facet normal 0 0 1
    outer loop
      vertex -3.81314 -2.67152 5
      vertex -4.95111 -1.98823 5
      vertex -5.01419 -2.17404 5
    endloop
  endfacet
  facet normal 0 0 1
    outer loop
      vertex -3.81314 -2.67152 5
      vertex -5.01419 -2.17404 5
      vertex -5.10097 -2.35 5
    endloop
  endfacet
  facet normal 0 0 1
    outer loop
      vertex -3.97513 -3.00001 5
      vertex -5.10097 -2.35 5
      vertex -5.20998 -2.51315 5
    endloop
  endfacet
  facet normal 0 0 1
    outer loop
      vertex -3.97513 -3.00001 5
      vertex -5.20998 -2.51315 5
      vertex -4.17862 -3.30455 5
    endloop
  endfacet
  facet normal 0 0 1
    outer loop
      vertex -5.20998 -2.51315 5
      vertex -5.33934 -2.66067 5
      vertex -4.17862 -3.30455 5
    endloop
  endfacet
  facet normal 0 0 1
    outer loop
      vertex -5.33934 -2.66067 5
      vertex -4.69547 -3.82139 5
      vertex -4.42011 -3.57991 5
    endloop
  endfacet
  facet normal 0 0 1
    outer loop
      vertex -5.48687 -2.79004 5
      vertex -5 -4.02488 5
      vertex -4.69547 -3.82139 5
    endloop
  endfacet
  facet normal -0 0 1
    outer loop
      vertex -5.65001 -2.89904 5
      vertex -5 -4.02488 5
      vertex -5.48687 -2.79004 5
    endloop
  endfacet
  facet normal -0 0 1
    outer loop
      vertex -5.82598 -2.98582 5
      vertex -5.32849 -4.18687 5
      vertex -5.65001 -2.89904 5
    endloop
  endfacet
  facet normal -0 0 1
    outer loop
      vertex -6.01178 -3.0489 5
      vertex -5.32849 -4.18687 5
      vertex -5.82598 -2.98582 5
    endloop
  endfacet
  facet normal 0 -0 1
    outer loop
      vertex -5.67531 -4.30459 5
      vertex -5.32849 -4.18687 5
      vertex -6.01178 -3.0489 5
    endloop
  endfacet
  facet normal 0 0 1
    outer loop
      vertex -6.03453 -4.37605 5
      vertex -6.20421 -3.08717 5
      vertex -6.40001 -3.1 5
    endloop
  endfacet
  facet normal 0 -0 1
    outer loop
      vertex -6.03453 -4.37605 5
      vertex -6.01178 -3.0489 5
      vertex -6.20421 -3.08717 5
    endloop
  endfacet
  facet normal 0.195108 -0.980782 0
    outer loop
      vertex -5.67531 -4.30459 0
      vertex -6.03453 -4.37605 5
      vertex -6.03453 -4.37605 0
    endloop
  endfacet
  facet normal 0.195108 -0.980782 0
    outer loop
      vertex -5.67531 -4.30459 0
      vertex -5.67531 -4.30459 5
      vertex -6.03453 -4.37605 5
    endloop
  endfacet
  facet normal 0.321416 -0.946938 0
    outer loop
      vertex -5.32849 -4.18687 0
      vertex -5.67531 -4.30459 5
      vertex -5.67531 -4.30459 0
    endloop
  endfacet
  facet normal 0.321416 -0.946938 0
    outer loop
      vertex -5.32849 -4.18687 0
      vertex -5.32849 -4.18687 5
      vertex -5.67531 -4.30459 5
    endloop
  endfacet
  facet normal 0.442281 -0.896876 0
    outer loop
      vertex -5 -4.02488 0
      vertex -5.32849 -4.18687 5
      vertex -5.32849 -4.18687 0
    endloop
  endfacet
  facet normal 0.442281 -0.896876 0
    outer loop
      vertex -5 -4.02488 0
      vertex -5 -4.02488 5
      vertex -5.32849 -4.18687 5
    endloop
  endfacet
  facet normal 0.555588 -0.831458 0
    outer loop
      vertex -4.69547 -3.82139 0
      vertex -5 -4.02488 5
      vertex -5 -4.02488 0
    endloop
  endfacet
  facet normal 0.555588 -0.831458 0
    outer loop
      vertex -4.69547 -3.82139 0
      vertex -4.69547 -3.82139 5
      vertex -5 -4.02488 5
    endloop
  endfacet
  facet normal 0.659339 -0.751846 0
    outer loop
      vertex -4.42011 -3.57991 0
      vertex -4.69547 -3.82139 5
      vertex -4.69547 -3.82139 0
    endloop
  endfacet
  facet normal 0.659339 -0.751846 0
    outer loop
      vertex -4.42011 -3.57991 0
      vertex -4.42011 -3.57991 5
      vertex -4.69547 -3.82139 5
    endloop
  endfacet
  facet normal 0.751832 -0.659355 0
    outer loop
      vertex -4.17862 -3.30455 0
      vertex -4.42011 -3.57991 5
      vertex -4.42011 -3.57991 0
    endloop
  endfacet
  facet normal 0.751832 -0.659355 0
    outer loop
      vertex -4.17862 -3.30455 0
      vertex -4.17862 -3.30455 5
      vertex -4.42011 -3.57991 5
    endloop
  endfacet
  facet normal 0.831466 -0.555576 0
    outer loop
      vertex -3.97513 -3.00001 0
      vertex -4.17862 -3.30455 5
      vertex -4.17862 -3.30455 0
    endloop
  endfacet
  facet normal 0.831466 -0.555576 0
    outer loop
      vertex -3.97513 -3.00001 0
      vertex -3.97513 -3.00001 5
      vertex -4.17862 -3.30455 5
    endloop
  endfacet
  facet normal 0.896876 -0.442281 0
    outer loop
      vertex -3.81314 -2.67152 0
      vertex -3.97513 -3.00001 5
      vertex -3.97513 -3.00001 0
    endloop
  endfacet
  facet normal 0.896876 -0.442281 0
    outer loop
      vertex -3.81314 -2.67152 0
      vertex -3.81314 -2.67152 5
      vertex -3.97513 -3.00001 5
    endloop
  endfacet
  facet normal 0.946938 -0.321416 0
    outer loop
      vertex -3.69542 -2.3247 0
      vertex -3.81314 -2.67152 5
      vertex -3.81314 -2.67152 0
    endloop
  endfacet
  facet normal 0.946938 -0.321416 0
    outer loop
      vertex -3.69542 -2.3247 0
      vertex -3.69542 -2.3247 5
      vertex -3.81314 -2.67152 5
    endloop
  endfacet
  facet normal 0.980782 -0.195105 0
    outer loop
      vertex -3.63083 -2.00001 0
      vertex -3.69542 -2.3247 5
      vertex -3.69542 -2.3247 0
    endloop
  endfacet
  facet normal 0.980782 -0.195105 0
    outer loop
      vertex -3.63083 -2.00001 0
      vertex -3.63083 -2.00001 5
      vertex -3.69542 -2.3247 5
    endloop
  endfacet
  facet normal 0 -1 0
    outer loop
      vertex 0.599988 -2.00001 0
      vertex -3.63083 -2.00001 5
      vertex -3.63083 -2.00001 0
    endloop
  endfacet
  facet normal 0 -1 0
    outer loop
      vertex 0.599988 -2.00001 0
      vertex 0.599988 -2.00001 5
      vertex -3.63083 -2.00001 5
    endloop
  endfacet
  facet normal 1 0 0
    outer loop
      vertex 0.599988 -1.98015 0
      vertex 0.599988 -2.00001 5
      vertex 0.599988 -2.00001 0
    endloop
  endfacet
  facet normal 1 0 -0
    outer loop
      vertex 0.599988 -1.98015 0
      vertex 0.599988 -1.98015 5
      vertex 0.599988 -2.00001 5
    endloop
  endfacet
  facet normal 0.893309 -0.449443 0
    outer loop
      vertex 2.19999 1.2 0
      vertex 0.599988 -1.98015 5
      vertex 0.599988 -1.98015 0
    endloop
  endfacet
  facet normal 0.893309 -0.449443 0
    outer loop
      vertex 2.19999 1.2 0
      vertex 2.19999 1.2 5
      vertex 0.599988 -1.98015 5
    endloop
  endfacet
  facet normal 0 -1 0
    outer loop
      vertex 10.2 1.2 0
      vertex 2.19999 1.2 5
      vertex 2.19999 1.2 0
    endloop
  endfacet
  facet normal 0 -1 0
    outer loop
      vertex 10.2 1.2 0
      vertex 10.2 1.2 5
      vertex 2.19999 1.2 5
    endloop
  endfacet
  facet normal 1 0 0
    outer loop
      vertex 10.2 3.4 0
      vertex 10.2 1.2 5
      vertex 10.2 1.2 0
    endloop
  endfacet
  facet normal 1 0 -0
    outer loop
      vertex 10.2 3.4 0
      vertex 10.2 3.4 5
      vertex 10.2 1.2 5
    endloop
  endfacet
  facet normal 0.707102 0.707111 0
    outer loop
      vertex 9.39999 4.2 0
      vertex 10.2 3.4 5
      vertex 10.2 3.4 0
    endloop
  endfacet
  facet normal 0.707102 0.707111 -0
    outer loop
      vertex 9.39999 4.2 0
      vertex 9.39999 4.2 5
      vertex 10.2 3.4 5
    endloop
  endfacet
  facet normal 0 1 0
    outer loop
      vertex 9.14999 4.2 0
      vertex 9.39999 4.2 5
      vertex 9.39999 4.2 0
    endloop
  endfacet
  facet normal 0 1 0
    outer loop
      vertex 9.14999 4.2 0
      vertex 9.14999 4.2 5
      vertex 9.39999 4.2 5
    endloop
  endfacet
  facet normal -0.965927 0.258814 0
    outer loop
      vertex 9.0897 3.97499 0
      vertex 9.14999 4.2 5
      vertex 9.14999 4.2 0
    endloop
  endfacet
  facet normal -0.965927 0.258814 0
    outer loop
      vertex 9.0897 3.97499 0
      vertex 9.0897 3.97499 5
      vertex 9.14999 4.2 5
    endloop
  endfacet
  facet normal -0.707128 0.707085 0
    outer loop
      vertex 8.925 3.81028 0
      vertex 9.0897 3.97499 5
      vertex 9.0897 3.97499 0
    endloop
  endfacet
  facet normal -0.707128 0.707085 0
    outer loop
      vertex 8.925 3.81028 0
      vertex 8.925 3.81028 5
      vertex 9.0897 3.97499 5
    endloop
  endfacet
  facet normal -0.258814 0.965927 0
    outer loop
      vertex 8.69999 3.74999 0
      vertex 8.925 3.81028 5
      vertex 8.925 3.81028 0
    endloop
  endfacet
  facet normal -0.258814 0.965927 0
    outer loop
      vertex 8.69999 3.74999 0
      vertex 8.69999 3.74999 5
      vertex 8.925 3.81028 5
    endloop
  endfacet
  facet normal 0.258825 0.965924 0
    outer loop
      vertex 8.47499 3.81028 0
      vertex 8.69999 3.74999 5
      vertex 8.69999 3.74999 0
    endloop
  endfacet
  facet normal 0.258825 0.965924 -0
    outer loop
      vertex 8.47499 3.81028 0
      vertex 8.47499 3.81028 5
      vertex 8.69999 3.74999 5
    endloop
  endfacet
  facet normal 0.707107 0.707107 0
    outer loop
      vertex 8.31028 3.97499 0
      vertex 8.47499 3.81028 5
      vertex 8.47499 3.81028 0
    endloop
  endfacet
  facet normal 0.707107 0.707107 -0
    outer loop
      vertex 8.31028 3.97499 0
      vertex 8.31028 3.97499 5
      vertex 8.47499 3.81028 5
    endloop
  endfacet
  facet normal 0.965938 0.258774 0
    outer loop
      vertex 8.25 4.2 0
      vertex 8.31028 3.97499 5
      vertex 8.31028 3.97499 0
    endloop
  endfacet
  facet normal 0.965938 0.258774 -0
    outer loop
      vertex 8.25 4.2 0
      vertex 8.25 4.2 5
      vertex 8.31028 3.97499 5
    endloop
  endfacet
  facet normal 0 1 0
    outer loop
      vertex 7.14999 4.2 0
      vertex 8.25 4.2 5
      vertex 8.25 4.2 0
    endloop
  endfacet
  facet normal 0 1 0
    outer loop
      vertex 7.14999 4.2 0
      vertex 7.14999 4.2 5
      vertex 8.25 4.2 5
    endloop
  endfacet
  facet normal -0.965927 0.258814 0
    outer loop
      vertex 7.0897 3.97499 0
      vertex 7.14999 4.2 5
      vertex 7.14999 4.2 0
    endloop
  endfacet
  facet normal -0.965927 0.258814 0
    outer loop
      vertex 7.0897 3.97499 0
      vertex 7.0897 3.97499 5
      vertex 7.14999 4.2 5
    endloop
  endfacet
  facet normal -0.707128 0.707085 0
    outer loop
      vertex 6.925 3.81028 0
      vertex 7.0897 3.97499 5
      vertex 7.0897 3.97499 0
    endloop
  endfacet
  facet normal -0.707128 0.707085 0
    outer loop
      vertex 6.925 3.81028 0
      vertex 6.925 3.81028 5
      vertex 7.0897 3.97499 5
    endloop
  endfacet
  facet normal -0.258814 0.965927 0
    outer loop
      vertex 6.69999 3.74999 0
      vertex 6.925 3.81028 5
      vertex 6.925 3.81028 0
    endloop
  endfacet
  facet normal -0.258814 0.965927 0
    outer loop
      vertex 6.69999 3.74999 0
      vertex 6.69999 3.74999 5
      vertex 6.925 3.81028 5
    endloop
  endfacet
  facet normal 0.258825 0.965924 0
    outer loop
      vertex 6.47499 3.81028 0
      vertex 6.69999 3.74999 5
      vertex 6.69999 3.74999 0
    endloop
  endfacet
  facet normal 0.258825 0.965924 -0
    outer loop
      vertex 6.47499 3.81028 0
      vertex 6.47499 3.81028 5
      vertex 6.69999 3.74999 5
    endloop
  endfacet
  facet normal 0.707107 0.707107 0
    outer loop
      vertex 6.31028 3.97499 0
      vertex 6.47499 3.81028 5
      vertex 6.47499 3.81028 0
    endloop
  endfacet
  facet normal 0.707107 0.707107 -0
    outer loop
      vertex 6.31028 3.97499 0
      vertex 6.31028 3.97499 5
      vertex 6.47499 3.81028 5
    endloop
  endfacet
  facet normal 0.965938 0.258774 0
    outer loop
      vertex 6.25 4.2 0
      vertex 6.31028 3.97499 5
      vertex 6.31028 3.97499 0
    endloop
  endfacet
  facet normal 0.965938 0.258774 -0
    outer loop
      vertex 6.25 4.2 0
      vertex 6.25 4.2 5
      vertex 6.31028 3.97499 5
    endloop
  endfacet
  facet normal 0 1 0
    outer loop
      vertex 5.14999 4.2 0
      vertex 6.25 4.2 5
      vertex 6.25 4.2 0
    endloop
  endfacet
  facet normal 0 1 0
    outer loop
      vertex 5.14999 4.2 0
      vertex 5.14999 4.2 5
      vertex 6.25 4.2 5
    endloop
  endfacet
  facet normal -0.965927 0.258814 0
    outer loop
      vertex 5.0897 3.97499 0
      vertex 5.14999 4.2 5
      vertex 5.14999 4.2 0
    endloop
  endfacet
  facet normal -0.965927 0.258814 0
    outer loop
      vertex 5.0897 3.97499 0
      vertex 5.0897 3.97499 5
      vertex 5.14999 4.2 5
    endloop
  endfacet
  facet normal -0.707128 0.707085 0
    outer loop
      vertex 4.925 3.81028 0
      vertex 5.0897 3.97499 5
      vertex 5.0897 3.97499 0
    endloop
  endfacet
  facet normal -0.707128 0.707085 0
    outer loop
      vertex 4.925 3.81028 0
      vertex 4.925 3.81028 5
      vertex 5.0897 3.97499 5
    endloop
  endfacet
  facet normal -0.258814 0.965927 0
    outer loop
      vertex 4.69999 3.74999 0
      vertex 4.925 3.81028 5
      vertex 4.925 3.81028 0
    endloop
  endfacet
  facet normal -0.258814 0.965927 0
    outer loop
      vertex 4.69999 3.74999 0
      vertex 4.69999 3.74999 5
      vertex 4.925 3.81028 5
    endloop
  endfacet
  facet normal 0.258825 0.965924 0
    outer loop
      vertex 4.47499 3.81028 0
      vertex 4.69999 3.74999 5
      vertex 4.69999 3.74999 0
    endloop
  endfacet
  facet normal 0.258825 0.965924 -0
    outer loop
      vertex 4.47499 3.81028 0
      vertex 4.47499 3.81028 5
      vertex 4.69999 3.74999 5
    endloop
  endfacet
  facet normal 0.707107 0.707107 0
    outer loop
      vertex 4.31028 3.97499 0
      vertex 4.47499 3.81028 5
      vertex 4.47499 3.81028 0
    endloop
  endfacet
  facet normal 0.707107 0.707107 -0
    outer loop
      vertex 4.31028 3.97499 0
      vertex 4.31028 3.97499 5
      vertex 4.47499 3.81028 5
    endloop
  endfacet
  facet normal 0.965938 0.258774 0
    outer loop
      vertex 4.25 4.2 0
      vertex 4.31028 3.97499 5
      vertex 4.31028 3.97499 0
    endloop
  endfacet
  facet normal 0.965938 0.258774 -0
    outer loop
      vertex 4.25 4.2 0
      vertex 4.25 4.2 5
      vertex 4.31028 3.97499 5
    endloop
  endfacet
  facet normal 0 1 0
    outer loop
      vertex 3.3 4.2 0
      vertex 4.25 4.2 5
      vertex 4.25 4.2 0
    endloop
  endfacet
  facet normal 0 1 0
    outer loop
      vertex 3.3 4.2 0
      vertex 3.3 4.2 5
      vertex 4.25 4.2 5
    endloop
  endfacet
  facet normal -0.747409 0.664365 0
    outer loop
      vertex 0.0999878 0.599994 0
      vertex 3.3 4.2 5
      vertex 3.3 4.2 0
    endloop
  endfacet
  facet normal -0.747409 0.664365 0
    outer loop
      vertex 0.0999878 0.599994 0
      vertex 0.0999878 0.599994 5
      vertex 3.3 4.2 5
    endloop
  endfacet
  facet normal 0 1 0
    outer loop
      vertex -4.67107 0.599994 0
      vertex 0.0999878 0.599994 5
      vertex 0.0999878 0.599994 0
    endloop
  endfacet
  facet normal 0 1 0
    outer loop
      vertex -4.67107 0.599994 0
      vertex -4.67107 0.599994 5
      vertex 0.0999878 0.599994 5
    endloop
  endfacet
  facet normal 0.659255 0.75192 0
    outer loop
      vertex -4.69547 0.621387 0
      vertex -4.67107 0.599994 5
      vertex -4.67107 0.599994 0
    endloop
  endfacet
  facet normal 0.659255 0.75192 -0
    outer loop
      vertex -4.69547 0.621387 0
      vertex -4.69547 0.621387 5
      vertex -4.67107 0.599994 5
    endloop
  endfacet
  facet normal 0.555562 0.831475 0
    outer loop
      vertex -5 0.824863 0
      vertex -4.69547 0.621387 5
      vertex -4.69547 0.621387 0
    endloop
  endfacet
  facet normal 0.555562 0.831475 -0
    outer loop
      vertex -5 0.824863 0
      vertex -5 0.824863 5
      vertex -4.69547 0.621387 5
    endloop
  endfacet
  facet normal 0.442275 0.89688 0
    outer loop
      vertex -5.32849 0.98685 0
      vertex -5 0.824863 5
      vertex -5 0.824863 0
    endloop
  endfacet
  facet normal 0.442275 0.89688 -0
    outer loop
      vertex -5.32849 0.98685 0
      vertex -5.32849 0.98685 5
      vertex -5 0.824863 5
    endloop
  endfacet
  facet normal 0.321466 0.946921 0
    outer loop
      vertex -5.40001 1.01113 0
      vertex -5.32849 0.98685 5
      vertex -5.32849 0.98685 0
    endloop
  endfacet
  facet normal 0.321466 0.946921 -0
    outer loop
      vertex -5.40001 1.01113 0
      vertex -5.40001 1.01113 5
      vertex -5.32849 0.98685 5
    endloop
  endfacet
  facet normal 1 0 0
    outer loop
      vertex -5.40001 8.39453 0
      vertex -5.40001 1.01113 5
      vertex -5.40001 1.01113 0
    endloop
  endfacet
  facet normal 1 0 -0
    outer loop
      vertex -5.40001 8.39453 0
      vertex -5.40001 8.39453 5
      vertex -5.40001 1.01113 5
    endloop
  endfacet
  facet normal 0 1 0
    outer loop
      vertex -8.30001 8.39453 0
      vertex -5.40001 8.39453 5
      vertex -5.40001 8.39453 0
    endloop
  endfacet
  facet normal 0 1 0
    outer loop
      vertex -8.30001 8.39453 0
      vertex -8.30001 8.39453 5
      vertex -5.40001 8.39453 5
    endloop
  endfacet
  facet normal -0.707107 0.707107 0
    outer loop
      vertex -9.025 7.66954 0
      vertex -8.30001 8.39453 5
      vertex -8.30001 8.39453 0
    endloop
  endfacet
  facet normal -0.707107 0.707107 0
    outer loop
      vertex -9.025 7.66954 0
      vertex -9.025 7.66954 5
      vertex -8.30001 8.39453 5
    endloop
  endfacet
  facet normal 0 -1 0
    outer loop
      vertex -6.22501 7.66954 0
      vertex -9.025 7.66954 5
      vertex -9.025 7.66954 0
    endloop
  endfacet
  facet normal 0 -1 0
    outer loop
      vertex -6.22501 7.66954 0
      vertex -6.22501 7.66954 5
      vertex -9.025 7.66954 5
    endloop
  endfacet
  facet normal -1 0 0
    outer loop
      vertex -6.22501 4.71953 0
      vertex -6.22501 7.66954 5
      vertex -6.22501 7.66954 0
    endloop
  endfacet
  facet normal -1 0 0
    outer loop
      vertex -6.22501 4.71953 0
      vertex -6.22501 4.71953 5
      vertex -6.22501 7.66954 5
    endloop
  endfacet
  facet normal 0 1 0
    outer loop
      vertex -9.17501 4.71953 0
      vertex -6.22501 4.71953 5
      vertex -6.22501 4.71953 0
    endloop
  endfacet
  facet normal 0 1 0
    outer loop
      vertex -9.17501 4.71953 0
      vertex -9.17501 4.71953 5
      vertex -6.22501 4.71953 5
    endloop
  endfacet
  facet normal 1 0 0
    outer loop
      vertex -9.17501 7.51953 0
      vertex -9.17501 4.71953 5
      vertex -9.17501 4.71953 0
    endloop
  endfacet
  facet normal 1 0 -0
    outer loop
      vertex -9.17501 7.51953 0
      vertex -9.17501 7.51953 5
      vertex -9.17501 4.71953 5
    endloop
  endfacet
  facet normal -0.707107 0.707107 0
    outer loop
      vertex -10.2 6.49454 0
      vertex -9.17501 7.51953 5
      vertex -9.17501 7.51953 0
    endloop
  endfacet
  facet normal -0.707107 0.707107 0
    outer loop
      vertex -10.2 6.49454 0
      vertex -10.2 6.49454 5
      vertex -9.17501 7.51953 5
    endloop
  endfacet
  facet normal -1 0 0
    outer loop
      vertex -10.2 -4.20001 0
      vertex -10.2 6.49454 5
      vertex -10.2 6.49454 0
    endloop
  endfacet
  facet normal -1 0 0
    outer loop
      vertex -10.2 -4.20001 0
      vertex -10.2 -4.20001 5
      vertex -10.2 6.49454 5
    endloop
  endfacet
  facet normal 0 -1 0
    outer loop
      vertex -7.4328 -4.20001 0
      vertex -10.2 -4.20001 5
      vertex -10.2 -4.20001 0
    endloop
  endfacet
  facet normal 0 -1 0
    outer loop
      vertex -7.4328 -4.20001 0
      vertex -7.4328 -4.20001 5
      vertex -10.2 -4.20001 5
    endloop
  endfacet
  facet normal -0.321423 -0.946936 0
    outer loop
      vertex -7.1247 -4.30459 0
      vertex -7.4328 -4.20001 5
      vertex -7.4328 -4.20001 0
    endloop
  endfacet
  facet normal -0.321423 -0.946936 0
    outer loop
      vertex -7.1247 -4.30459 0
      vertex -7.1247 -4.30459 5
      vertex -7.4328 -4.20001 5
    endloop
  endfacet
  facet normal -0.195108 -0.980782 0
    outer loop
      vertex -6.76548 -4.37605 0
      vertex -7.1247 -4.30459 5
      vertex -7.1247 -4.30459 0
    endloop
  endfacet
  facet normal -0.195108 -0.980782 0
    outer loop
      vertex -6.76548 -4.37605 0
      vertex -6.76548 -4.37605 5
      vertex -7.1247 -4.30459 5
    endloop
  endfacet
  facet normal -0.065419 -0.997858 0
    outer loop
      vertex -6.40001 -4.40001 0
      vertex -6.76548 -4.37605 5
      vertex -6.76548 -4.37605 0
    endloop
  endfacet
  facet normal -0.065419 -0.997858 0
    outer loop
      vertex -6.40001 -4.40001 0
      vertex -6.40001 -4.40001 5
      vertex -6.76548 -4.37605 5
    endloop
  endfacet
  facet normal 0.0654172 -0.997858 0
    outer loop
      vertex -6.03453 -4.37605 0
      vertex -6.40001 -4.40001 5
      vertex -6.40001 -4.40001 0
    endloop
  endfacet
  facet normal 0.0654172 -0.997858 0
    outer loop
      vertex -6.03453 -4.37605 0
      vertex -6.03453 -4.37605 5
      vertex -6.40001 -4.40001 5
    endloop
  endfacet
  facet normal 0.195048 0.980794 -0
    outer loop
      vertex -6.78824 -3.0489 0
      vertex -6.78824 -3.0489 5
      vertex -6.5958 -3.08717 0
    endloop
  endfacet
  facet normal 0.195048 0.980794 0
    outer loop
      vertex -6.5958 -3.08717 5
      vertex -6.5958 -3.08717 0
      vertex -6.78824 -3.0489 5
    endloop
  endfacet
  facet normal 0.321498 0.94691 -0
    outer loop
      vertex -6.97403 -2.98582 0
      vertex -6.97403 -2.98582 5
      vertex -6.78824 -3.0489 0
    endloop
  endfacet
  facet normal 0.321498 0.94691 0
    outer loop
      vertex -6.78824 -3.0489 5
      vertex -6.78824 -3.0489 0
      vertex -6.97403 -2.98582 5
    endloop
  endfacet
  facet normal 0.442273 0.89688 -0
    outer loop
      vertex -7.15001 -2.89904 0
      vertex -7.15001 -2.89904 5
      vertex -6.97403 -2.98582 0
    endloop
  endfacet
  facet normal 0.442273 0.89688 0
    outer loop
      vertex -6.97403 -2.98582 5
      vertex -6.97403 -2.98582 0
      vertex -7.15001 -2.89904 5
    endloop
  endfacet
  facet normal 0.55557 0.83147 -0
    outer loop
      vertex -7.31314 -2.79004 0
      vertex -7.31314 -2.79004 5
      vertex -7.15001 -2.89904 0
    endloop
  endfacet
  facet normal 0.55557 0.83147 0
    outer loop
      vertex -7.15001 -2.89904 5
      vertex -7.15001 -2.89904 0
      vertex -7.31314 -2.79004 5
    endloop
  endfacet
  facet normal 0.659316 0.751866 -0
    outer loop
      vertex -7.46067 -2.66067 0
      vertex -7.46067 -2.66067 5
      vertex -7.31314 -2.79004 0
    endloop
  endfacet
  facet normal 0.659316 0.751866 0
    outer loop
      vertex -7.31314 -2.79004 5
      vertex -7.31314 -2.79004 0
      vertex -7.46067 -2.66067 5
    endloop
  endfacet
  facet normal 0.751844 0.659341 -0
    outer loop
      vertex -7.59004 -2.51315 0
      vertex -7.59004 -2.51315 5
      vertex -7.46067 -2.66067 0
    endloop
  endfacet
  facet normal 0.751844 0.659341 0
    outer loop
      vertex -7.46067 -2.66067 5
      vertex -7.46067 -2.66067 0
      vertex -7.59004 -2.51315 5
    endloop
  endfacet
  facet normal 0.831501 0.555523 -0
    outer loop
      vertex -7.69904 -2.35 0
      vertex -7.69904 -2.35 5
      vertex -7.59004 -2.51315 0
    endloop
  endfacet
  facet normal 0.831501 0.555523 0
    outer loop
      vertex -7.59004 -2.51315 5
      vertex -7.59004 -2.51315 0
      vertex -7.69904 -2.35 5
    endloop
  endfacet
  facet normal 0.89684 0.442355 -0
    outer loop
      vertex -7.78583 -2.17404 0
      vertex -7.78583 -2.17404 5
      vertex -7.69904 -2.35 0
    endloop
  endfacet
  facet normal 0.89684 0.442355 0
    outer loop
      vertex -7.69904 -2.35 5
      vertex -7.69904 -2.35 0
      vertex -7.78583 -2.17404 5
    endloop
  endfacet
  facet normal 0.946936 0.321421 -0
    outer loop
      vertex -7.8489 -1.98823 0
      vertex -7.8489 -1.98823 5
      vertex -7.78583 -2.17404 0
    endloop
  endfacet
  facet normal 0.946936 0.321421 0
    outer loop
      vertex -7.78583 -2.17404 5
      vertex -7.78583 -2.17404 0
      vertex -7.8489 -1.98823 5
    endloop
  endfacet
  facet normal 0.980782 0.195106 -0
    outer loop
      vertex -7.88718 -1.7958 0
      vertex -7.88718 -1.7958 5
      vertex -7.8489 -1.98823 0
    endloop
  endfacet
  facet normal 0.980782 0.195106 0
    outer loop
      vertex -7.8489 -1.98823 5
      vertex -7.8489 -1.98823 0
      vertex -7.88718 -1.7958 5
    endloop
  endfacet
  facet normal 0.99786 0.0653858 -0
    outer loop
      vertex -7.90001 -1.6 0
      vertex -7.90001 -1.6 5
      vertex -7.88718 -1.7958 0
    endloop
  endfacet
  facet normal 0.99786 0.0653858 0
    outer loop
      vertex -7.88718 -1.7958 5
      vertex -7.88718 -1.7958 0
      vertex -7.90001 -1.6 5
    endloop
  endfacet
  facet normal 0.99786 -0.0653925 0
    outer loop
      vertex -7.88718 -1.40422 0
      vertex -7.88718 -1.40422 5
      vertex -7.90001 -1.6 0
    endloop
  endfacet
  facet normal 0.99786 -0.0653925 0
    outer loop
      vertex -7.90001 -1.6 5
      vertex -7.90001 -1.6 0
      vertex -7.88718 -1.40422 5
    endloop
  endfacet
  facet normal 0.980786 -0.195087 0
    outer loop
      vertex -7.8489 -1.21177 0
      vertex -7.8489 -1.21177 5
      vertex -7.88718 -1.40422 0
    endloop
  endfacet
  facet normal 0.980786 -0.195087 0
    outer loop
      vertex -7.88718 -1.40422 5
      vertex -7.88718 -1.40422 0
      vertex -7.8489 -1.21177 5
    endloop
  endfacet
  facet normal 0.946926 -0.321452 0
    outer loop
      vertex -7.78583 -1.02598 0
      vertex -7.78583 -1.02598 5
      vertex -7.8489 -1.21177 0
    endloop
  endfacet
  facet normal 0.946926 -0.321452 0
    outer loop
      vertex -7.8489 -1.21177 5
      vertex -7.8489 -1.21177 0
      vertex -7.78583 -1.02598 5
    endloop
  endfacet
  facet normal 0.896857 -0.44232 0
    outer loop
      vertex -7.69904 -0.850003 0
      vertex -7.69904 -0.850003 5
      vertex -7.78583 -1.02598 0
    endloop
  endfacet
  facet normal 0.896857 -0.44232 0
    outer loop
      vertex -7.78583 -1.02598 5
      vertex -7.78583 -1.02598 0
      vertex -7.69904 -0.850003 5
    endloop
  endfacet
  facet normal 0.831473 -0.555566 0
    outer loop
      vertex -7.59004 -0.686871 0
      vertex -7.59004 -0.686871 5
      vertex -7.69904 -0.850003 0
    endloop
  endfacet
  facet normal 0.831473 -0.555566 0
    outer loop
      vertex -7.69904 -0.850003 5
      vertex -7.69904 -0.850003 0
      vertex -7.59004 -0.686871 5
    endloop
  endfacet
  facet normal 0.751848 -0.659336 0
    outer loop
      vertex -7.46067 -0.539349 0
      vertex -7.46067 -0.539349 5
      vertex -7.59004 -0.686871 0
    endloop
  endfacet
  facet normal 0.751848 -0.659336 0
    outer loop
      vertex -7.59004 -0.686871 5
      vertex -7.59004 -0.686871 0
      vertex -7.46067 -0.539349 5
    endloop
  endfacet
  facet normal 0.659342 -0.751843 0
    outer loop
      vertex -7.31314 -0.40997 0
      vertex -7.31314 -0.40997 5
      vertex -7.46067 -0.539349 0
    endloop
  endfacet
  facet normal 0.659342 -0.751843 0
    outer loop
      vertex -7.46067 -0.539349 5
      vertex -7.46067 -0.539349 0
      vertex -7.31314 -0.40997 5
    endloop
  endfacet
  facet normal 0.555546 -0.831486 0
    outer loop
      vertex -7.15001 -0.300977 0
      vertex -7.15001 -0.300977 5
      vertex -7.31314 -0.40997 0
    endloop
  endfacet
  facet normal 0.555546 -0.831486 0
    outer loop
      vertex -7.31314 -0.40997 5
      vertex -7.31314 -0.40997 0
      vertex -7.15001 -0.300977 5
    endloop
  endfacet
  facet normal 0.442323 -0.896856 0
    outer loop
      vertex -6.97403 -0.214185 0
      vertex -6.97403 -0.214185 5
      vertex -7.15001 -0.300977 0
    endloop
  endfacet
  facet normal 0.442323 -0.896856 0
    outer loop
      vertex -7.15001 -0.300977 5
      vertex -7.15001 -0.300977 0
      vertex -6.97403 -0.214185 5
    endloop
  endfacet
  facet normal 0.321429 -0.946934 0
    outer loop
      vertex -6.78824 -0.15112 0
      vertex -6.78824 -0.15112 5
      vertex -6.97403 -0.214185 0
    endloop
  endfacet
  facet normal 0.321429 -0.946934 0
    outer loop
      vertex -6.97403 -0.214185 5
      vertex -6.97403 -0.214185 0
      vertex -6.78824 -0.15112 5
    endloop
  endfacet
  facet normal 0.195116 -0.98078 0
    outer loop
      vertex -6.5958 -0.112836 0
      vertex -6.5958 -0.112836 5
      vertex -6.78824 -0.15112 0
    endloop
  endfacet
  facet normal 0.195116 -0.98078 0
    outer loop
      vertex -6.78824 -0.15112 5
      vertex -6.78824 -0.15112 0
      vertex -6.5958 -0.112836 5
    endloop
  endfacet
  facet normal 0.0654044 -0.997859 0
    outer loop
      vertex -6.40001 -0.100003 0
      vertex -6.40001 -0.100003 5
      vertex -6.5958 -0.112836 0
    endloop
  endfacet
  facet normal 0.0654044 -0.997859 0
    outer loop
      vertex -6.5958 -0.112836 5
      vertex -6.5958 -0.112836 0
      vertex -6.40001 -0.100003 5
    endloop
  endfacet
  facet normal -0.065401 -0.997859 0
    outer loop
      vertex -6.20421 -0.112836 0
      vertex -6.20421 -0.112836 5
      vertex -6.40001 -0.100003 0
    endloop
  endfacet
  facet normal -0.065401 -0.997859 -0
    outer loop
      vertex -6.40001 -0.100003 5
      vertex -6.40001 -0.100003 0
      vertex -6.20421 -0.112836 5
    endloop
  endfacet
  facet normal -0.195126 -0.980778 0
    outer loop
      vertex -6.01178 -0.15112 0
      vertex -6.01178 -0.15112 5
      vertex -6.20421 -0.112836 0
    endloop
  endfacet
  facet normal -0.195126 -0.980778 -0
    outer loop
      vertex -6.20421 -0.112836 5
      vertex -6.20421 -0.112836 0
      vertex -6.01178 -0.15112 5
    endloop
  endfacet
  facet normal -0.321414 -0.946939 0
    outer loop
      vertex -5.82598 -0.214185 0
      vertex -5.82598 -0.214185 5
      vertex -6.01178 -0.15112 0
    endloop
  endfacet
  facet normal -0.321414 -0.946939 -0
    outer loop
      vertex -6.01178 -0.15112 5
      vertex -6.01178 -0.15112 0
      vertex -5.82598 -0.214185 5
    endloop
  endfacet
  facet normal -0.442343 -0.896846 0
    outer loop
      vertex -5.65001 -0.300977 0
      vertex -5.65001 -0.300977 5
      vertex -5.82598 -0.214185 0
    endloop
  endfacet
  facet normal -0.442343 -0.896846 -0
    outer loop
      vertex -5.82598 -0.214185 5
      vertex -5.82598 -0.214185 0
      vertex -5.65001 -0.300977 5
    endloop
  endfacet
  facet normal -0.555522 -0.831502 0
    outer loop
      vertex -5.48687 -0.40997 0
      vertex -5.48687 -0.40997 5
      vertex -5.65001 -0.300977 0
    endloop
  endfacet
  facet normal -0.555522 -0.831502 -0
    outer loop
      vertex -5.65001 -0.300977 5
      vertex -5.65001 -0.300977 0
      vertex -5.48687 -0.40997 5
    endloop
  endfacet
  facet normal -0.659342 -0.751843 0
    outer loop
      vertex -5.33934 -0.539349 0
      vertex -5.33934 -0.539349 5
      vertex -5.48687 -0.40997 0
    endloop
  endfacet
  facet normal -0.659342 -0.751843 -0
    outer loop
      vertex -5.48687 -0.40997 5
      vertex -5.48687 -0.40997 0
      vertex -5.33934 -0.539349 5
    endloop
  endfacet
  facet normal -0.751873 -0.659307 0
    outer loop
      vertex -5.20998 -0.686871 0
      vertex -5.20998 -0.686871 5
      vertex -5.33934 -0.539349 0
    endloop
  endfacet
  facet normal -0.751873 -0.659307 -0
    outer loop
      vertex -5.33934 -0.539349 5
      vertex -5.33934 -0.539349 0
      vertex -5.20998 -0.686871 5
    endloop
  endfacet
  facet normal -0.831449 -0.555601 0
    outer loop
      vertex -5.10097 -0.850003 0
      vertex -5.10097 -0.850003 5
      vertex -5.20998 -0.686871 0
    endloop
  endfacet
  facet normal -0.831449 -0.555601 -0
    outer loop
      vertex -5.20998 -0.686871 5
      vertex -5.20998 -0.686871 0
      vertex -5.10097 -0.850003 5
    endloop
  endfacet
  facet normal -0.896877 -0.442279 0
    outer loop
      vertex -5.01419 -1.02598 0
      vertex -5.01419 -1.02598 5
      vertex -5.10097 -0.850003 0
    endloop
  endfacet
  facet normal -0.896877 -0.442279 -0
    outer loop
      vertex -5.10097 -0.850003 5
      vertex -5.10097 -0.850003 0
      vertex -5.01419 -1.02598 5
    endloop
  endfacet
  facet normal -0.94691 -0.321498 0
    outer loop
      vertex -4.95111 -1.21177 0
      vertex -4.95111 -1.21177 5
      vertex -5.01419 -1.02598 0
    endloop
  endfacet
  facet normal -0.94691 -0.321498 -0
    outer loop
      vertex -5.01419 -1.02598 5
      vertex -5.01419 -1.02598 0
      vertex -4.95111 -1.21177 5
    endloop
  endfacet
  facet normal -0.980796 -0.195038 0
    outer loop
      vertex -4.91284 -1.40422 0
      vertex -4.91284 -1.40422 5
      vertex -4.95111 -1.21177 0
    endloop
  endfacet
  facet normal -0.980796 -0.195038 -0
    outer loop
      vertex -4.95111 -1.21177 5
      vertex -4.95111 -1.21177 0
      vertex -4.91284 -1.40422 5
    endloop
  endfacet
  facet normal -0.99786 -0.0653925 0
    outer loop
      vertex -4.90001 -1.6 0
      vertex -4.90001 -1.6 5
      vertex -4.91284 -1.40422 0
    endloop
  endfacet
  facet normal -0.99786 -0.0653925 -0
    outer loop
      vertex -4.91284 -1.40422 5
      vertex -4.91284 -1.40422 0
      vertex -4.90001 -1.6 5
    endloop
  endfacet
  facet normal -0.99786 0.0653858 0
    outer loop
      vertex -4.91284 -1.7958 0
      vertex -4.91284 -1.7958 5
      vertex -4.90001 -1.6 0
    endloop
  endfacet
  facet normal -0.99786 0.0653858 0
    outer loop
      vertex -4.90001 -1.6 5
      vertex -4.90001 -1.6 0
      vertex -4.91284 -1.7958 5
    endloop
  endfacet
  facet normal -0.980792 0.195057 0
    outer loop
      vertex -4.95111 -1.98823 0
      vertex -4.95111 -1.98823 5
      vertex -4.91284 -1.7958 0
    endloop
  endfacet
  facet normal -0.980792 0.195057 0
    outer loop
      vertex -4.91284 -1.7958 5
      vertex -4.91284 -1.7958 0
      vertex -4.95111 -1.98823 5
    endloop
  endfacet
  facet normal -0.946921 0.321467 0
    outer loop
      vertex -5.01419 -2.17404 0
      vertex -5.01419 -2.17404 5
      vertex -4.95111 -1.98823 0
    endloop
  endfacet
  facet normal -0.946921 0.321467 0
    outer loop
      vertex -4.95111 -1.98823 5
      vertex -4.95111 -1.98823 0
      vertex -5.01419 -2.17404 5
    endloop
  endfacet
  facet normal -0.89686 0.442314 0
    outer loop
      vertex -5.10097 -2.35 0
      vertex -5.10097 -2.35 5
      vertex -5.01419 -2.17404 0
    endloop
  endfacet
  facet normal -0.89686 0.442314 0
    outer loop
      vertex -5.01419 -2.17404 5
      vertex -5.01419 -2.17404 0
      vertex -5.10097 -2.35 5
    endloop
  endfacet
  facet normal -0.831477 0.555558 0
    outer loop
      vertex -5.20998 -2.51315 0
      vertex -5.20998 -2.51315 5
      vertex -5.10097 -2.35 0
    endloop
  endfacet
  facet normal -0.831477 0.555558 0
    outer loop
      vertex -5.10097 -2.35 5
      vertex -5.10097 -2.35 0
      vertex -5.20998 -2.51315 5
    endloop
  endfacet
  facet normal -0.751869 0.659312 0
    outer loop
      vertex -5.33934 -2.66067 0
      vertex -5.33934 -2.66067 5
      vertex -5.20998 -2.51315 0
    endloop
  endfacet
  facet normal -0.751869 0.659312 0
    outer loop
      vertex -5.20998 -2.51315 5
      vertex -5.20998 -2.51315 0
      vertex -5.33934 -2.66067 5
    endloop
  endfacet
  facet normal -0.659316 0.751866 0
    outer loop
      vertex -5.48687 -2.79004 0
      vertex -5.48687 -2.79004 5
      vertex -5.33934 -2.66067 0
    endloop
  endfacet
  facet normal -0.659316 0.751866 0
    outer loop
      vertex -5.33934 -2.66067 5
      vertex -5.33934 -2.66067 0
      vertex -5.48687 -2.79004 5
    endloop
  endfacet
  facet normal -0.555547 0.831485 0
    outer loop
      vertex -5.65001 -2.89904 0
      vertex -5.65001 -2.89904 5
      vertex -5.48687 -2.79004 0
    endloop
  endfacet
  facet normal -0.555547 0.831485 0
    outer loop
      vertex -5.48687 -2.79004 5
      vertex -5.48687 -2.79004 0
      vertex -5.65001 -2.89904 5
    endloop
  endfacet
  facet normal -0.442294 0.89687 0
    outer loop
      vertex -5.82598 -2.98582 0
      vertex -5.82598 -2.98582 5
      vertex -5.65001 -2.89904 0
    endloop
  endfacet
  facet normal -0.442294 0.89687 0
    outer loop
      vertex -5.65001 -2.89904 5
      vertex -5.65001 -2.89904 0
      vertex -5.82598 -2.98582 5
    endloop
  endfacet
  facet normal -0.321482 0.946916 0
    outer loop
      vertex -6.01178 -3.0489 0
      vertex -6.01178 -3.0489 5
      vertex -5.82598 -2.98582 0
    endloop
  endfacet
  facet normal -0.321482 0.946916 0
    outer loop
      vertex -5.82598 -2.98582 5
      vertex -5.82598 -2.98582 0
      vertex -6.01178 -3.0489 5
    endloop
  endfacet
  facet normal -0.195057 0.980792 0
    outer loop
      vertex -6.20421 -3.08717 0
      vertex -6.20421 -3.08717 5
      vertex -6.01178 -3.0489 0
    endloop
  endfacet
  facet normal -0.195057 0.980792 0
    outer loop
      vertex -6.01178 -3.0489 5
      vertex -6.01178 -3.0489 0
      vertex -6.20421 -3.08717 5
    endloop
  endfacet
  facet normal -0.0653858 0.99786 0
    outer loop
      vertex -6.40001 -3.1 0
      vertex -6.40001 -3.1 5
      vertex -6.20421 -3.08717 0
    endloop
  endfacet
  facet normal -0.0653858 0.99786 0
    outer loop
      vertex -6.20421 -3.08717 5
      vertex -6.20421 -3.08717 0
      vertex -6.40001 -3.1 5
    endloop
  endfacet
  facet normal 0.0653892 0.99786 -0
    outer loop
      vertex -6.5958 -3.08717 0
      vertex -6.5958 -3.08717 5
      vertex -6.40001 -3.1 0
    endloop
  endfacet
  facet normal 0.0653892 0.99786 0
    outer loop
      vertex -6.40001 -3.1 5
      vertex -6.40001 -3.1 0
      vertex -6.5958 -3.08717 5
    endloop
  endfacet
endsolid OpenSCAD_Model
