solid OpenSCAD_Model
  facet normal 0 0 1
    outer loop
      vertex 11.3 2.8 2.8
      vertex 0.3 2.8 2.8
      vertex 11.3 0 2.8
    endloop
  endfacet
  facet normal -1 0 0
    outer loop
      vertex 0 0.3 0.3
      vertex 0 2.5 2.5
      vertex 0 2.5 0.3
    endloop
  endfacet
  facet normal 1 0 -0
    outer loop
      vertex 11.6 2.5 0.3
      vertex 11.6 2.5 2.5
      vertex 11.6 0.3 0.3
    endloop
  endfacet
  facet normal 0 0 1
    outer loop
      vertex 11.3 0 2.8
      vertex 0.3 2.8 2.8
      vertex 0.3 0 2.8
    endloop
  endfacet
  facet normal 0 0 -1
    outer loop
      vertex 0.3 0 0
      vertex 11.3 2.8 0
      vertex 11.3 0 0
    endloop
  endfacet
  facet normal -0.707107 0.707107 0
    outer loop
      vertex 0 2.5 0.3
      vertex 0 2.5 2.5
      vertex 0.3 2.8 0
    endloop
  endfacet
  facet normal 0 1 0
    outer loop
      vertex 0.3 2.8 2.8
      vertex 11.3 2.8 0
      vertex 0.3 2.8 0
    endloop
  endfacet
  facet normal 0 0 -1
    outer loop
      vertex 0.3 2.8 0
      vertex 11.3 2.8 0
      vertex 0.3 0 0
    endloop
  endfacet
  facet normal 0 -1 -0
    outer loop
      vertex 11.3 0 2.8
      vertex 0.3 0 0
      vertex 11.3 0 0
    endloop
  endfacet
  facet normal 0 -1 0
    outer loop
      vertex 0.3 0 2.8
      vertex 0.3 0 0
      vertex 11.3 0 2.8
    endloop
  endfacet
  facet normal 0 1 0
    outer loop
      vertex 11.3 2.8 2.8
      vertex 11.3 2.8 0
      vertex 0.3 2.8 2.8
    endloop
  endfacet
  facet normal 0.707107 0 -0.707107
    outer loop
      vertex 11.3 2.8 0
      vertex 11.6 0.3 0.3
      vertex 11.3 0 0
    endloop
  endfacet
  facet normal -0.707107 -0.707107 -0
    outer loop
      vertex 0 0.3 2.5
      vertex 0 0.3 0.3
      vertex 0.3 0 2.8
    endloop
  endfacet
  facet normal -0.707107 0 -0.707107
    outer loop
      vertex 0.3 2.8 0
      vertex 0 0.3 0.3
      vertex 0 2.5 0.3
    endloop
  endfacet
  facet normal 0.707107 0.707107 0
    outer loop
      vertex 11.3 2.8 0
      vertex 11.6 2.5 2.5
      vertex 11.6 2.5 0.3
    endloop
  endfacet
  facet normal 0.707107 0 -0.707107
    outer loop
      vertex 11.6 2.5 0.3
      vertex 11.6 0.3 0.3
      vertex 11.3 2.8 0
    endloop
  endfacet
  facet normal -0.707107 0 0.707107
    outer loop
      vertex 0.3 2.8 2.8
      vertex 0 2.5 2.5
      vertex 0.3 0 2.8
    endloop
  endfacet
  facet normal -0.707107 0.707107 0
    outer loop
      vertex 0.3 2.8 0
      vertex 0 2.5 2.5
      vertex 0.3 2.8 2.8
    endloop
  endfacet
  facet normal 0.707107 -0.707107 0
    outer loop
      vertex 11.3 0 0
      vertex 11.6 0.3 2.5
      vertex 11.3 0 2.8
    endloop
  endfacet
  facet normal 0.707107 -0.707107 0
    outer loop
      vertex 11.6 0.3 0.3
      vertex 11.6 0.3 2.5
      vertex 11.3 0 0
    endloop
  endfacet
  facet normal -0.707107 0 -0.707107
    outer loop
      vertex 0.3 0 0
      vertex 0 0.3 0.3
      vertex 0.3 2.8 0
    endloop
  endfacet
  facet normal -0.707107 -0.707107 -0
    outer loop
      vertex 0.3 0 2.8
      vertex 0 0.3 0.3
      vertex 0.3 0 0
    endloop
  endfacet
  facet normal -1 0 0
    outer loop
      vertex 0 0.3 2.5
      vertex 0 2.5 2.5
      vertex 0 0.3 0.3
    endloop
  endfacet
  facet normal -0.707107 0 0.707107
    outer loop
      vertex 0.3 0 2.8
      vertex 0 2.5 2.5
      vertex 0 0.3 2.5
    endloop
  endfacet
  facet normal 0.707107 -0 0.707107
    outer loop
      vertex 11.6 0.3 2.5
      vertex 11.6 2.5 2.5
      vertex 11.3 0 2.8
    endloop
  endfacet
  facet normal 1 0 0
    outer loop
      vertex 11.6 0.3 0.3
      vertex 11.6 2.5 2.5
      vertex 11.6 0.3 2.5
    endloop
  endfacet
  facet normal 0.707107 0.707107 0
    outer loop
      vertex 11.3 2.8 2.8
      vertex 11.6 2.5 2.5
      vertex 11.3 2.8 0
    endloop
  endfacet
  facet normal 0.707107 -0 0.707107
    outer loop
      vertex 11.3 0 2.8
      vertex 11.6 2.5 2.5
      vertex 11.3 2.8 2.8
    endloop
  endfacet
endsolid OpenSCAD_Model
