solid OpenSCAD_Model
  facet normal 0 0 1
    outer loop
      vertex 10.4 3.3 3.3
      vertex 0.4 3.3 3.3
      vertex 10.4 0 3.3
    endloop
  endfacet
  facet normal -0.707107 0 -0.707107
    outer loop
      vertex 0.4 0 0
      vertex 0 2.9 0.4
      vertex 0.4 3.3 0
    endloop
  endfacet
  facet normal 1 0 0
    outer loop
      vertex 10.8 0.4 0.4
      vertex 10.8 2.9 0.4
      vertex 10.8 0.4 2.9
    endloop
  endfacet
  facet normal 0 0 1
    outer loop
      vertex 10.4 0 3.3
      vertex 0.4 3.3 3.3
      vertex 0.4 0 3.3
    endloop
  endfacet
  facet normal 0 0 -1
    outer loop
      vertex 0.4 0 0
      vertex 10.4 3.3 0
      vertex 10.4 0 0
    endloop
  endfacet
  facet normal -0.707107 0 0.707107
    outer loop
      vertex 0.4 3.3 3.3
      vertex 0 2.9 2.9
      vertex 0.4 0 3.3
    endloop
  endfacet
  facet normal 0 1 0
    outer loop
      vertex 0.4 3.3 3.3
      vertex 10.4 3.3 0
      vertex 0.4 3.3 0
    endloop
  endfacet
  facet normal 0 0 -1
    outer loop
      vertex 0.4 3.3 0
      vertex 10.4 3.3 0
      vertex 0.4 0 0
    endloop
  endfacet
  facet normal 0 -1 -0
    outer loop
      vertex 10.4 0 3.3
      vertex 0.4 0 0
      vertex 10.4 0 0
    endloop
  endfacet
  facet normal 0 -1 0
    outer loop
      vertex 0.4 0 3.3
      vertex 0.4 0 0
      vertex 10.4 0 3.3
    endloop
  endfacet
  facet normal 0 1 0
    outer loop
      vertex 10.4 3.3 3.3
      vertex 10.4 3.3 0
      vertex 0.4 3.3 3.3
    endloop
  endfacet
  facet normal 0.707107 0 -0.707107
    outer loop
      vertex 10.4 0 0
      vertex 10.8 2.9 0.4
      vertex 10.8 0.4 0.4
    endloop
  endfacet
  facet normal -1 -0 -0
    outer loop
      vertex 0 2.9 2.9
      vertex 0 2.9 0.4
      vertex 0 0.4 2.9
    endloop
  endfacet
  facet normal -1 0 0
    outer loop
      vertex 0 0.4 2.9
      vertex 0 2.9 0.4
      vertex 0 0.4 0.4
    endloop
  endfacet
  facet normal 0.707107 -0.707107 0
    outer loop
      vertex 10.4 0 0
      vertex 10.8 0.4 2.9
      vertex 10.4 0 3.3
    endloop
  endfacet
  facet normal 0.707107 0.707107 0
    outer loop
      vertex 10.8 2.9 2.9
      vertex 10.8 2.9 0.4
      vertex 10.4 3.3 3.3
    endloop
  endfacet
  facet normal -0.707107 -0.707107 0
    outer loop
      vertex 0.4 0 0
      vertex 0 0.4 2.9
      vertex 0 0.4 0.4
    endloop
  endfacet
  facet normal -0.707107 -0.707107 -0
    outer loop
      vertex 0.4 0 3.3
      vertex 0 0.4 2.9
      vertex 0.4 0 0
    endloop
  endfacet
  facet normal 1 -0 0
    outer loop
      vertex 10.8 0.4 2.9
      vertex 10.8 2.9 0.4
      vertex 10.8 2.9 2.9
    endloop
  endfacet
  facet normal 0.707107 -0.707107 0
    outer loop
      vertex 10.8 0.4 0.4
      vertex 10.8 0.4 2.9
      vertex 10.4 0 0
    endloop
  endfacet
  facet normal -0.707107 0 -0.707107
    outer loop
      vertex 0 0.4 0.4
      vertex 0 2.9 0.4
      vertex 0.4 0 0
    endloop
  endfacet
  facet normal -0.707107 0 0.707107
    outer loop
      vertex 0.4 0 3.3
      vertex 0 2.9 2.9
      vertex 0 0.4 2.9
    endloop
  endfacet
  facet normal 0.707107 0 0.707107
    outer loop
      vertex 10.4 3.3 3.3
      vertex 10.8 0.4 2.9
      vertex 10.8 2.9 2.9
    endloop
  endfacet
  facet normal 0.707107 -0 0.707107
    outer loop
      vertex 10.4 0 3.3
      vertex 10.8 0.4 2.9
      vertex 10.4 3.3 3.3
    endloop
  endfacet
  facet normal 0.707107 0 -0.707107
    outer loop
      vertex 10.4 3.3 0
      vertex 10.8 2.9 0.4
      vertex 10.4 0 0
    endloop
  endfacet
  facet normal 0.707107 0.707107 0
    outer loop
      vertex 10.4 3.3 3.3
      vertex 10.8 2.9 0.4
      vertex 10.4 3.3 0
    endloop
  endfacet
  facet normal -0.707107 0.707107 0
    outer loop
      vertex 0.4 3.3 3.3
      vertex 0 2.9 0.4
      vertex 0 2.9 2.9
    endloop
  endfacet
  facet normal -0.707107 0.707107 0
    outer loop
      vertex 0.4 3.3 0
      vertex 0 2.9 0.4
      vertex 0.4 3.3 3.3
    endloop
  endfacet
endsolid OpenSCAD_Model
